<svg width="357" height="114" viewBox="0 0 357 114" fill="none" xmlns="http://www.w3.org/2000/svg">
<g clip-path="url(#clip0_3420_19960)">
<rect width="357" height="114" rx="20" fill="#F9E67F"/>
<ellipse cx="292.56" cy="104.42" rx="92" ry="93.38" fill="#FCC73D"/>
<g filter="url(#filter0_f_3420_19960)">
<ellipse cx="35.2174" cy="25.1889" rx="67.4176" ry="68.4289" fill="#FFF9EA" fill-opacity="0.46"/>
</g>
<ellipse cx="269.892" cy="58.6992" rx="3.68" ry="5.52" transform="rotate(14.3345 269.892 58.6992)" fill="#2B2B2B"/>
<ellipse cx="287.372" cy="63.2993" rx="3.68" ry="5.52" transform="rotate(14.3345 287.372 63.2993)" fill="#2B2B2B"/>
<path d="M252.453 68.0801C256.279 76.0213 270.996 89.5307 299.249 80.0383" stroke="#2B2B2B" stroke-width="2.76" stroke-linecap="round"/>
<path d="M37.8916 39.4829V41.1647H32.1345V45.984H30.0968V41.1647H24.4205V39.4829H37.8916ZM31.1156 31.7365C34.2691 31.7365 36.4847 33.0465 36.4847 35.0841C36.4847 37.0894 34.2691 38.367 31.1156 38.367C27.9621 38.367 25.7627 37.0894 25.7789 35.0841C25.7627 33.0465 27.9621 31.7365 31.1156 31.7365ZM31.1156 33.3861C29.1427 33.3861 27.8812 34.0006 27.8974 35.0841C27.8812 36.1353 29.1427 36.7337 31.1156 36.7337C33.1048 36.7337 34.35 36.1353 34.35 35.0841C34.35 34.0006 33.1048 33.3861 31.1156 33.3861ZM51.5847 31.2514V46.0001H49.5309V31.2514H51.5847ZM47.0242 32.4804V38.1568H42.1727V40.8575C44.4125 40.8494 46.3207 40.72 48.4797 40.3723L48.6576 42.038C46.2318 42.4585 44.0486 42.5555 41.3641 42.5555H40.038V36.5234H44.9219V34.1462H40.0218V32.4804H47.0242ZM71.8228 38.2053V39.8225H58.3678V38.2053H64.0927V36.9439H60.0012V31.8983H70.2056V33.4993H62.055V35.3267H70.2865V36.9439H66.1141V38.2053H71.8228ZM65.063 40.5664C68.2488 40.5664 70.1733 41.5367 70.1895 43.2833C70.1733 44.9975 68.2488 45.984 65.063 45.984C61.8448 45.984 59.9041 44.9975 59.9041 43.2833C59.9041 41.5367 61.8448 40.5664 65.063 40.5664ZM65.063 42.1351C63.0253 42.1351 61.9903 42.5232 62.0065 43.2833C61.9903 44.0595 63.0253 44.4153 65.063 44.4153C67.0521 44.4153 68.1033 44.0595 68.1195 43.2833C68.1033 42.5232 67.0521 42.1351 65.063 42.1351ZM75.8127 32.6583V40.6796C77.1631 40.6553 78.4083 40.5583 79.791 40.2591L80.0659 41.9895C78.2547 42.3776 76.6699 42.4423 74.7777 42.4423H73.7427V32.6583H75.8127ZM85.9363 31.2514V45.9678H83.9957V31.2514H85.9363ZM82.7828 31.5263V45.3209H80.826V37.5746H77.8827V35.9089H80.826V31.5263H82.7828ZM104.509 31.2514V34.7122H105.997V36.394H104.509V40.1297H102.503V31.2514H104.509ZM94.1426 32.2379V34.1462H95.0967V32.2379H96.7624V39.1918H92.4769V32.2379H94.1426ZM94.1426 37.5746H95.0967V35.7472H94.1426V37.5746ZM99.0588 32.2379V34.1462H99.9806V32.2379H101.663V39.1918H97.3931V32.2379H99.0588ZM99.0588 37.5746H99.9806V35.7472H99.0588V37.5746ZM99.4308 40.3723C102.617 40.3723 104.606 41.3912 104.606 43.1539C104.606 44.9328 102.617 45.9678 99.4308 45.9678C96.2126 45.9678 94.2396 44.9328 94.2396 43.1539C94.2396 41.3912 96.2126 40.3723 99.4308 40.3723ZM99.4308 41.941C97.3931 41.941 96.342 42.3453 96.3581 43.1539C96.342 43.9625 97.3931 44.3991 99.4308 44.3991C101.436 44.3991 102.52 43.9625 102.52 43.1539C102.52 42.3453 101.436 41.941 99.4308 41.941ZM115.808 32.06V33.7095H112.865C112.962 35.262 114.07 36.8145 116.374 37.4452L115.339 39.0462C113.658 38.5692 112.477 37.5584 111.814 36.2647C111.143 37.6635 109.938 38.7713 108.191 39.305L107.156 37.6878C109.501 37.0086 110.641 35.3752 110.747 33.7095H107.722V32.06H115.808ZM119.431 31.2514V39.2403H117.361V31.2514H119.431ZM111.62 39.8548V41.2294H117.377V39.8548H119.431V45.8061H109.582V39.8548H111.62ZM111.62 44.1565H117.377V42.8304H111.62V44.1565ZM138.165 32.0762V33.4022C138.149 34.9305 138.149 36.6285 137.664 39.0139H139.653V40.6796H133.977V45.9354H131.907V40.6796H126.23V39.0139H135.642C135.82 38.2296 135.941 37.5099 136.014 36.8469L127.572 37.2673L127.33 35.5046L136.16 35.262C136.176 34.7122 136.184 34.2028 136.192 33.7095H127.799V32.0762H138.165ZM153.265 31.7851V33.4508H151.341V35.9897H153.168V37.5908H148.769V38.9654H154.462V40.5826H141.039V38.9654H146.699V37.5908H142.317V35.9897H144.128V33.4508H142.22V31.7851H153.265ZM152.942 44.0595V45.709H142.656V41.5367H144.726V44.0595H152.942ZM146.198 35.9897H149.271V33.4508H146.198V35.9897ZM158.953 43.2833L157.562 47.8922H155.848L156.657 43.2833H158.953ZM62.6049 62.5555V64.2536H49.1337V62.5555H54.81V59.5476H50.5568V52.3349H61.1009V59.5476H56.8638V62.5555H62.6049ZM52.5945 53.9844V57.9304H59.0632V53.9844H52.5945ZM67.9047 52.2864C70.1526 52.2864 71.7698 54.324 71.7859 57.5261C71.7698 60.7604 70.1526 62.7819 67.9047 62.7819C65.6568 62.7819 64.0073 60.7604 64.0234 57.5261C64.0073 54.324 65.6568 52.2864 67.9047 52.2864ZM67.9047 54.1462C66.7727 54.1462 66.0126 55.3429 66.0126 57.5261C66.0126 59.7254 66.7727 60.906 67.9047 60.906C69.0529 60.906 69.7968 59.7254 69.813 57.5261C69.7968 55.3429 69.0529 54.1462 67.9047 54.1462ZM75.554 51.2514V56.7983H77.721V58.5126H75.554V65.9678H73.484V51.2514H75.554ZM90.5246 51.2676V55.0194H92.4006V56.7337H90.5246V60.2106H88.4546V51.2676H90.5246ZM78.6706 58.3994C79.738 58.3913 80.9509 58.3832 82.2123 58.3508V57.1703H79.641V51.8659H81.6786V52.9656H84.816V51.8659H86.8536V57.1703H84.2985V58.27C85.4467 58.2215 86.5949 58.1325 87.6622 57.9951L87.7754 59.3858C84.7998 59.9033 81.4199 59.9519 78.8647 59.968L78.6706 58.3994ZM81.6786 55.5531H84.816V54.5343H81.6786V55.5531ZM83.7971 60.9869C83.7971 62.0704 84.2823 63.2267 85.479 63.9787C86.6595 63.2105 87.1932 62.038 87.2094 60.9869V60.7119H89.247V60.9869C89.247 62.3453 90.0718 63.6714 92.0124 64.2536L91.0098 65.7737C89.6352 65.3209 88.7134 64.4638 88.1959 63.3803C87.7026 64.4881 86.8455 65.4341 85.4952 65.9031C84.1367 65.4422 83.2715 64.5285 82.7945 63.445C82.2608 64.4962 81.3552 65.329 79.9967 65.7737L78.9779 64.2536C80.9347 63.6714 81.7918 62.3453 81.7918 60.9869V60.7119H83.7971V60.9869ZM97.6195 52.2864C99.6087 52.2864 101.088 53.9278 101.388 56.5719H103.943V51.2514H105.98V66.0001H103.943V58.2215H101.404C101.185 61.0515 99.6734 62.7819 97.6195 62.7819C95.3878 62.7819 93.7868 60.7604 93.803 57.5261C93.7868 54.324 95.3878 52.2864 97.6195 52.2864ZM97.6195 54.1462C96.5199 54.1462 95.7598 55.3429 95.776 57.5261C95.7598 59.7254 96.5199 60.906 97.6195 60.906C98.7354 60.906 99.4631 59.7254 99.4631 57.5261C99.4631 55.3429 98.7354 54.1462 97.6195 54.1462ZM121.84 62.5555V64.2536H108.369V62.5555H111.377V58.9492C110.237 58.27 109.55 57.2269 109.55 55.9251C109.55 53.5478 111.879 51.9629 115.081 51.9629C118.267 51.9629 120.611 53.5478 120.628 55.9251C120.62 57.1946 119.948 58.2296 118.849 58.9169V62.5555H121.84ZM115.081 53.5963C112.978 53.5963 111.588 54.4372 111.588 55.9251C111.588 57.3644 112.978 58.2538 115.081 58.2538C117.167 58.2538 118.574 57.3644 118.59 55.9251C118.574 54.4372 117.167 53.5963 115.081 53.5963ZM113.415 62.5555H116.763V59.6931C116.237 59.7982 115.671 59.8548 115.081 59.8548C114.49 59.8548 113.932 59.8063 113.415 59.6931V62.5555ZM126.526 52.7715L126.316 60.9707H124.246L124.035 52.7715H126.526ZM125.297 64.6255C124.537 64.6255 123.922 64.011 123.938 63.2671C123.922 62.5232 124.537 61.9248 125.297 61.9248C126.008 61.9248 126.639 62.5232 126.639 63.2671C126.639 64.011 126.008 64.6255 125.297 64.6255Z" fill="#2B2B2B"/>
<path d="M30.5173 51.8174V52.6422C30.5173 53.6206 30.5173 55.0841 29.9674 57.0086H33.784C34.1964 55.5288 34.2934 54.3968 34.3177 53.4831H31.4229V51.8174H36.3068V52.7554C36.3068 53.7985 36.3068 55.1812 35.8702 57.0086H37.8593V58.6743H32.1506V60.7119H36.1289V65.9516H34.0266V62.3615H26.0053V60.7119H30.113V58.6743H24.4366V57.0086H27.8812C28.3502 55.5046 28.4715 54.3645 28.512 53.4831H25.6334V51.8174H30.5173ZM42.5931 52.7715L42.3829 60.9707H40.3129L40.1027 52.7715H42.5931ZM41.3641 64.6255C40.604 64.6255 39.9895 64.011 40.0056 63.2671C39.9895 62.5232 40.604 61.9248 41.3641 61.9248C42.0756 61.9248 42.7063 62.5232 42.7063 63.2671C42.7063 64.011 42.0756 64.6255 41.3641 64.6255Z" fill="#AE751F"/>
<path d="M27.1671 82.6685C27.1671 83.8174 27.8425 85.0283 28.9758 85.5018L28.5023 86.1849C27.6717 85.8279 27.0662 85.0904 26.7479 84.1977C26.4219 85.1603 25.8087 85.9676 24.9859 86.3557L24.4891 85.6804C25.5991 85.168 26.29 83.8639 26.29 82.6685V82.0786H24.7452V81.3644H28.7041V82.0786H27.1671V82.6685ZM30.3575 80.6736V87.6909H29.4881V80.6736H30.3575ZM37.0177 81.0151V81.5585C37.0177 82.1019 37.0177 82.7229 36.847 83.5534H37.8017V84.2521H31.3899V83.5534H35.9776C36.1406 82.7966 36.1561 82.2183 36.1561 81.706H32.1817V81.0151H37.0177ZM37.01 85.0671V87.6055H32.1584V85.0671H37.01ZM33.0045 85.7425V86.9068H36.1561V85.7425H33.0045ZM42.436 80.9841C43.4994 80.9763 44.2757 81.5818 44.2757 82.4589C44.2757 83.3206 43.4994 83.9338 42.436 83.926C41.3803 83.9338 40.6118 83.3206 40.6118 82.4589C40.6118 81.5818 41.3803 80.9763 42.436 80.9841ZM42.436 81.6827C41.8615 81.6749 41.4424 81.9777 41.4501 82.4589C41.4424 82.9324 41.8615 83.2197 42.436 83.2197C43.0337 83.2197 43.4528 82.9324 43.4528 82.4589C43.4528 81.9777 43.0337 81.6749 42.436 81.6827ZM46.0145 80.6813V87.6831H45.1606V80.6813H46.0145ZM40.1538 84.4073C41.4191 84.4073 43.1889 84.384 44.7026 84.1589L44.7647 84.7954C44.1592 84.9119 43.5305 84.9856 42.9172 85.0283V87.4735H42.0478V85.0827C41.3997 85.1098 40.7903 85.1137 40.2625 85.1215L40.1538 84.4073ZM52.8455 80.6736V87.6909H51.9838V80.6736H52.8455ZM49.7094 82.9014C49.7094 83.9726 50.3615 85.1137 51.4948 85.5872L51.0213 86.247C50.214 85.9094 49.6124 85.2069 49.2902 84.3607C48.9759 85.2573 48.3704 86.0064 47.5514 86.3635L47.0857 85.6959C48.2035 85.1991 48.8478 84.0192 48.8478 82.9014V82.5366H47.303V81.8457H48.8478V80.821H49.7017V81.8457H51.2153V82.5366H49.7094V82.9014ZM62.1682 84.5859V85.2845H59.3815V87.6831H58.5276V85.2845H55.7719V84.5859H62.1682ZM61.5783 81.0694V81.7525H59.4746C59.5251 82.521 60.4488 83.2585 61.8344 83.437L61.5239 84.1123C60.3285 83.9455 59.397 83.3982 58.9701 82.6375C58.5431 83.3982 57.6116 83.9455 56.4317 84.1123L56.1057 83.437C57.4836 83.2585 58.4073 82.521 58.4733 81.7525H56.3619V81.0694H61.5783ZM68.518 80.6813V85.8589H67.6563V84.0968H66.2435V84.7178H62.96V81.1393H63.8216V82.2726H65.3897V81.1393H66.2435V81.8923H67.6563V80.6813H68.518ZM68.6732 86.8525V87.5511H63.8915V85.3466H64.7687V86.8525H68.6732ZM63.8216 84.0347H65.3897V82.9402H63.8216V84.0347ZM66.2435 83.3982H67.6563V82.5909H66.2435V83.3982ZM77.0412 81.085V81.7215C77.0412 82.4512 77.0412 83.2624 76.8083 84.3996H77.7941V85.0982H75.0307V87.6753H74.1613V85.0982H71.3978V84.3996H75.9544C76.0476 83.9843 76.1097 83.6078 76.1485 83.2662L72.0577 83.4681L71.949 82.7306L76.2028 82.6064C76.2145 82.3114 76.2145 82.0359 76.2184 81.7758H72.1663V81.085H77.0412ZM84.074 80.953V81.6516H83.1115V82.9945H84.0352V83.6699H81.8927V84.3918H84.664V85.0749H78.2677V84.3918H81.0233V83.6699H78.8809V82.9945H79.8046V81.6516H78.8421V80.953H84.074ZM83.942 86.8525V87.5511H79.0594V85.5795H79.9211V86.8525H83.942ZM80.6663 82.9945H82.2421V81.6516H80.6663V82.9945ZM93.0785 80.6736V87.6909H92.2479V80.6736H93.0785ZM91.7123 80.8055V87.3648H90.9128V85.2922H90.0434C89.7989 85.8356 89.3059 86.1772 88.6927 86.1772C87.8311 86.1772 87.1945 85.4941 87.2023 84.516C87.1945 83.5302 87.8311 82.8548 88.6927 82.8471C89.5621 82.8548 90.1909 83.5302 90.1909 84.516V84.6014H90.9128V83.6854H90.0667V82.979H90.9128V80.8055H91.7123ZM90.4004 81.7914V82.4822H87.0082V81.7914H88.2813V80.8521H89.1429V81.7914H90.4004ZM88.6927 83.5845C88.2502 83.5845 87.9553 83.9338 87.9553 84.516C87.9553 85.0827 88.2502 85.4475 88.6927 85.4475C89.1352 85.4475 89.4379 85.0827 89.4457 84.516C89.4379 83.9338 89.1352 83.5845 88.6927 83.5845ZM96.9132 81.1626V81.8535H94.9881V82.5366H96.8433V83.1964H94.9881V83.9338C95.8458 83.926 96.4397 83.8911 97.1228 83.763L97.2159 84.4617C96.3931 84.6169 95.71 84.6402 94.6232 84.6402H94.1575V81.1626H96.9132ZM99.894 80.6813V84.9507H99.0712V83.1265H98.3415V84.8964H97.5342V80.8133H98.3415V82.4356H99.0712V80.6813H99.894ZM99.894 85.2612V87.6909H99.0323V85.9598H95.089V85.2612H99.894ZM108.208 80.6813V82.7229H109.155V83.437H108.208V85.4242H107.346V80.6813H108.208ZM102.588 84.5859C103.115 84.5859 103.725 84.582 104.357 84.5626V84.1356C103.577 84.0386 103.084 83.6621 103.084 83.111C103.084 82.4667 103.76 82.063 104.777 82.0708C105.801 82.063 106.469 82.4667 106.469 83.111C106.469 83.6582 105.988 84.0308 105.219 84.1279V84.5315C105.817 84.5044 106.418 84.4578 106.981 84.384L107.051 84.9817C105.553 85.2457 103.915 85.2612 102.681 85.2612L102.588 84.5859ZM108.208 85.7269V87.6909H107.346V86.4023H103.473V85.7269H108.208ZM106.795 81.2325V81.869H102.766V81.2325H104.357V80.6192H105.219V81.2325H106.795ZM104.777 82.653C104.233 82.6452 103.907 82.8082 103.915 83.111C103.907 83.3982 104.233 83.5845 104.777 83.5767C105.32 83.5845 105.646 83.3982 105.646 83.111C105.646 82.8082 105.32 82.6452 104.777 82.653ZM115.365 80.6813V85.7502H114.495V80.6813H115.365ZM115.559 86.8525V87.5511H110.723V85.2379H111.592V86.8525H115.559ZM111.538 81.1393C112.601 81.1393 113.424 81.8767 113.424 82.8936C113.424 83.9338 112.601 84.6557 111.538 84.6557C110.467 84.6557 109.644 83.9338 109.644 82.8936C109.644 81.8767 110.467 81.1393 111.538 81.1393ZM111.538 81.8923C110.94 81.8923 110.482 82.2882 110.49 82.8936C110.482 83.5146 110.94 83.9028 111.538 83.9028C112.12 83.9028 112.578 83.5146 112.578 82.8936C112.578 82.2882 112.12 81.8923 111.538 81.8923ZM119.813 81.7914V82.4822H116.374V81.7914H117.678V80.8754H118.532V81.7914H119.813ZM118.105 82.8548C118.998 82.8548 119.634 83.5302 119.634 84.4849C119.634 85.4553 118.998 86.1384 118.105 86.1384C117.22 86.1384 116.568 85.4553 116.576 84.4849C116.568 83.5302 117.22 82.8548 118.105 82.8548ZM118.105 83.569C117.647 83.569 117.329 83.9338 117.336 84.4849C117.329 85.0516 117.647 85.4087 118.105 85.4009C118.555 85.4087 118.873 85.0516 118.873 84.4849C118.873 83.9338 118.555 83.569 118.105 83.569ZM122.421 80.6736V87.6909H121.598V84.2598H120.915V87.3726H120.108V80.821H120.915V83.5612H121.598V80.6736H122.421ZM129.671 86.1384V86.8447H123.259V86.1384H126.023V84.7722H123.966V81.1393H124.827V82.2882H128.08V81.1393H128.941V84.7722H126.876V86.1384H129.671ZM124.827 84.0735H128.08V82.979H124.827V84.0735ZM132.318 82.5133C132.318 83.6466 132.714 84.8265 133.661 85.4242L133.187 86.084C132.555 85.7037 132.143 85.0477 131.914 84.2754C131.658 85.1254 131.208 85.8434 130.548 86.247L130.012 85.6027C131.029 84.9817 131.487 83.7475 131.487 82.5521V81.2946H132.318V82.5133ZM136.184 80.6736V87.6909H135.353V80.6736H136.184ZM134.724 80.7978V87.3493H133.909V83.8018H132.908V83.0877H133.909V80.7978H134.724ZM143.411 86.1306V86.837H136.999V86.1306H138.481V84.353C137.922 84.0347 137.585 83.534 137.589 82.9092C137.581 81.7914 138.683 81.0539 140.189 81.0539C141.703 81.0539 142.805 81.7914 142.805 82.9092C142.805 83.5224 142.479 84.0153 141.936 84.3375V86.1306H143.411ZM140.189 81.737C139.141 81.737 138.427 82.1795 138.435 82.9092C138.427 83.6311 139.141 84.0813 140.189 84.0813C141.237 84.0813 141.959 83.6311 141.959 82.9092C141.959 82.1795 141.237 81.737 140.189 81.737ZM139.335 86.1306H141.059V84.6635C140.791 84.7256 140.5 84.7566 140.189 84.7566C139.886 84.7566 139.599 84.7256 139.335 84.6712V86.1306ZM151.328 86.8525L150.762 86.2936L152.462 84.6014H148.34V83.7863H152.462L150.762 82.0941L151.328 81.5352L153.983 84.19L151.328 86.8525Z" fill="#2B2B2B"/>
<path d="M328.077 62.4539C328.343 56.3375 328.781 50.3441 330.052 43.9118C330.646 40.8083 333.558 39.0318 337.235 39.6223C340.912 40.2128 343.12 42.8115 342.712 45.945C341.86 52.4445 340.398 58.2735 338.736 64.1656C338.001 66.9599 336.019 68.5992 332.667 68.061C329.316 67.5228 327.947 65.3454 328.077 62.4539ZM325.109 75.5845C325.737 71.6747 328.647 69.6115 332.324 70.202C336.094 70.8075 338.118 73.663 337.49 77.5728C336.982 80.7378 333.994 82.693 330.41 82.1174C326.78 81.5344 324.601 78.7495 325.109 75.5845Z" fill="white"/>
<rect x="24" y="89.96" width="128.8" height="2.76" rx="1.38" fill="#F8CF54"/>
<rect x="24" y="11" width="32.2" height="10.12" rx="5.06" fill="white" fill-opacity="0.59"/>
<path d="M34.306 18.194V18.6539H30.1316V18.194H31.9307V17.1984H30.5915V14.995H33.8259V17.1984H32.4866V18.194H34.306ZM31.1423 15.4448V16.7587H33.2699V15.4448H31.1423ZM35.9874 14.9748C36.6747 14.9748 37.17 15.6014 37.175 16.5869C37.17 17.5825 36.6747 18.2041 35.9874 18.2041C35.2951 18.2041 34.7948 17.5825 34.7998 16.5869C34.7948 15.6014 35.2951 14.9748 35.9874 14.9748ZM35.9874 15.4802C35.6033 15.4802 35.3406 15.8895 35.3406 16.5869C35.3406 17.2894 35.6033 17.6987 35.9874 17.6987C36.3766 17.6987 36.6343 17.2894 36.6343 16.5869C36.6343 15.8895 36.3766 15.4802 35.9874 15.4802ZM38.3374 14.6412V16.3949H39.0399V16.8699H38.3374V19.2098H37.7764V14.6412H38.3374ZM44.7124 14.6412V19.2098H44.1716V14.6412H44.7124ZM43.8229 14.7271V18.9975H43.3024V17.6482H42.7364C42.5772 18.002 42.2563 18.2243 41.857 18.2243C41.296 18.2243 40.8816 17.7796 40.8867 17.1428C40.8816 16.501 41.296 16.0613 41.857 16.0563C42.423 16.0613 42.8324 16.501 42.8324 17.1428V17.1984H43.3024V16.6021H42.7515V16.1422H43.3024V14.7271H43.8229ZM42.9688 15.369V15.8187H40.7604V15.369H41.5892V14.7575H42.1501V15.369H42.9688ZM41.857 16.5364C41.5689 16.5364 41.3769 16.7638 41.3769 17.1428C41.3769 17.5117 41.5689 17.7493 41.857 17.7493C42.1451 17.7493 42.3422 17.5117 42.3472 17.1428C42.3422 16.7638 42.1451 16.5364 41.857 16.5364ZM47.3641 14.9596V15.4094H46.1108V15.8541H47.3187V16.2837H46.1108V16.7638C46.6693 16.7587 47.0559 16.736 47.5006 16.6526L47.5612 17.1074C47.0255 17.2085 46.5808 17.2237 45.8733 17.2237H45.5701V14.9596H47.3641ZM49.3048 14.6463V17.4258H48.7691V16.2382H48.294V17.3905H47.7684V14.7322H48.294V15.7884H48.7691V14.6463H49.3048ZM49.3048 17.628V19.2098H48.7438V18.0828H46.1765V17.628H49.3048Z" fill="#2B2B2B"/>
</g>
<defs>
<filter id="filter0_f_3420_19960" x="-53.2682" y="-64.308" width="176.971" height="178.994" filterUnits="userSpaceOnUse" color-interpolation-filters="sRGB">
<feFlood flood-opacity="0" result="BackgroundImageFix"/>
<feBlend mode="normal" in="SourceGraphic" in2="BackgroundImageFix" result="shape"/>
<feGaussianBlur stdDeviation="10.534" result="effect1_foregroundBlur_3420_19960"/>
</filter>
<clipPath id="clip0_3420_19960">
<rect width="357" height="114" rx="20" fill="white"/>
</clipPath>
</defs>
</svg>
