<svg width="20" height="20" viewBox="0 0 20 20" fill="none" xmlns="http://www.w3.org/2000/svg">
<path d="M4.12481 17.3251C3.89106 17.3251 3.69526 17.2459 3.53741 17.0875C3.37956 16.9291 3.30036 16.7333 3.29981 16.5001C3.29926 16.2669 3.37846 16.0711 3.53741 15.9127C3.69636 15.7543 3.89216 15.6751 4.12481 15.6751H15.6748C15.9086 15.6751 16.1046 15.7543 16.263 15.9127C16.4214 16.0711 16.5004 16.2669 16.4998 16.5001C16.4993 16.7333 16.4201 16.9294 16.2622 17.0883C16.1044 17.2473 15.9086 17.3262 15.6748 17.3251H4.12481ZM6.59981 14.0251C5.69231 14.0251 4.91543 13.702 4.26918 13.0557C3.62293 12.4095 3.29981 11.6326 3.29981 10.7251V4.1251C3.29981 3.67135 3.46151 3.28305 3.78491 2.9602C4.10831 2.63735 4.49661 2.47565 4.94981 2.4751H16.4998C16.9536 2.4751 17.3421 2.6368 17.6655 2.9602C17.9889 3.2836 18.1504 3.6719 18.1498 4.1251V6.6001C18.1498 7.05385 17.9884 7.44242 17.6655 7.76582C17.3427 8.08922 16.9541 8.25065 16.4998 8.2501H14.8498V10.7251C14.8498 11.6326 14.5267 12.4095 13.8804 13.0557C13.2342 13.702 12.4573 14.0251 11.5498 14.0251H6.59981ZM14.8498 6.6001H16.4998V4.1251H14.8498V6.6001Z" fill="currentColor"/>
</svg>
