<svg width="321" height="165" viewBox="0 0 321 165" fill="none" xmlns="http://www.w3.org/2000/svg">
<mask id="path-1-inside-1_18_59" fill="white">
<path d="M215 0.5C215 11.2572 224.846 19.979 236.999 19.999L237 20V145C237 145.335 236.991 145.669 236.975 146C225.021 146.031 215.306 154.481 215.007 165H20C8.95431 165 0 156.046 0 145V20C0 8.95431 8.95431 0 20 0H215.007C215.002 0.166156 215 0.332836 215 0.5Z"/>
</mask>
<path d="M215 0.5C215 11.2572 224.846 19.979 236.999 19.999L237 20V145C237 145.335 236.991 145.669 236.975 146C225.021 146.031 215.306 154.481 215.007 165H20C8.95431 165 0 156.046 0 145V20C0 8.95431 8.95431 0 20 0H215.007C215.002 0.166156 215 0.332836 215 0.5Z" fill="white"/>
<path d="M236.999 19.999L237.706 19.2919L237.414 18.9997L237.001 18.999L236.999 19.999ZM237 20H238V19.5858L237.707 19.2929L237 20ZM236.975 146L236.977 147L237.927 146.998L237.973 146.049L236.975 146ZM215.007 165V166H215.979L216.006 165.028L215.007 165ZM20 165L20 166H20V165ZM215.007 0L216.006 0.0284363L216.036 -1H215.007V0ZM215 0.5H214C214 11.9203 224.411 20.9783 236.997 20.999L236.999 19.999L237.001 18.999C225.28 18.9797 216 10.594 216 0.5H215ZM236.999 19.999L236.292 20.7061L236.293 20.7071L237 20L237.707 19.2929L237.706 19.2919L236.999 19.999ZM237 20H236V145H237H238V20H237ZM237 145H236C236 145.317 235.991 145.634 235.976 145.951L236.975 146L237.973 146.049C237.99 145.703 238 145.353 238 145H237ZM236.975 146L236.972 145C224.59 145.032 214.325 153.807 214.007 164.972L215.007 165L216.006 165.028C216.287 155.155 225.452 147.03 236.977 147L236.975 146ZM215.007 165V164H20V165V166H215.007V165ZM20 165L20 164C9.50659 164 1 155.493 1 145H0H-1C-1 156.598 8.40202 166 20 166L20 165ZM0 145H1V20H0H-1V145H0ZM0 20H1C1 9.50659 9.50659 1 20 1V0V-1C8.40202 -1 -1 8.40202 -1 20H0ZM20 0V1H215.007V0V-1H20V0ZM215.007 0L214.007 -0.0284363C214.002 0.148237 214 0.324458 214 0.5H215H216C216 0.341215 216.002 0.184075 216.006 0.0284363L215.007 0Z" fill="#424242" fill-opacity="0.2" mask="url(#path-1-inside-1_18_59)"/>
<path d="M228 31V134" stroke="#FFA275" stroke-width="2" stroke-linecap="round" stroke-dasharray="7 7"/>
<path d="M301 0C312.046 3.22129e-08 321 8.95431 321 20V145C321 156.046 312.046 165 301 165H259.075C258.775 154.462 249.025 146 237.041 146C237.035 146 237.03 146 237.024 146C237.008 145.669 237 145.335 237 145V19.999C237.014 19.999 237.027 20 237.041 20C249.214 19.9999 259.082 11.2695 259.082 0.5C259.082 0.332836 259.08 0.166156 259.075 0H301Z" fill="#FF8246"/>
<path d="M261.637 59.247C261.625 61.1337 262.574 63.0556 264.215 63.8407L263.418 64.8837C262.27 64.3036 261.443 63.1845 260.992 61.8368C260.529 63.2782 259.662 64.4736 258.449 65.0829L257.652 64.04C259.352 63.2314 260.324 61.204 260.336 59.247V57.5595H261.637V59.247ZM266.148 56.704V60.8525H267.777V61.9657H266.148V67.2978H264.848V56.704H266.148ZM278.119 61.8017V62.8447H268.463V61.8017H270.713V60.454C269.916 60.12 269.459 59.5868 269.459 58.8954C269.459 57.6298 270.947 56.8798 273.279 56.8798C275.611 56.8798 277.088 57.6298 277.099 58.8954C277.094 59.5927 276.636 60.1259 275.834 60.454V61.8017H278.119ZM273.279 63.4892C275.564 63.4775 276.935 64.1572 276.947 65.3759C276.935 66.6064 275.564 67.2743 273.279 67.2743C270.97 67.2743 269.588 66.6064 269.588 65.3759C269.588 64.1572 270.97 63.4775 273.279 63.4892ZM273.279 64.4736C271.732 64.4736 270.9 64.7782 270.912 65.3759C270.9 65.9736 271.732 66.29 273.279 66.29C274.791 66.29 275.635 65.9736 275.646 65.3759C275.635 64.7782 274.791 64.4736 273.279 64.4736ZM273.279 57.8876C271.709 57.8876 270.806 58.2392 270.818 58.8954C270.806 59.54 271.709 59.8798 273.279 59.8798C274.838 59.8798 275.752 59.54 275.752 58.8954C275.752 58.2392 274.838 57.8876 273.279 57.8876ZM272.025 61.8017H274.533V60.7939C274.152 60.8466 273.73 60.8759 273.279 60.8759C272.828 60.8759 272.406 60.8466 272.025 60.7939V61.8017ZM287.371 56.704V60.9228H289V62.0009H287.371V67.2978H286.082V56.704H287.371ZM285.261 58.3329V59.3759H279.015V58.3329H281.523V56.8564H282.824V58.3329H285.261ZM282.179 60.0673C283.703 60.0673 284.839 61.0986 284.839 62.5634C284.839 64.0282 283.703 65.0478 282.179 65.0478C280.632 65.0478 279.496 64.0282 279.507 62.5634C279.496 61.0986 280.632 60.0673 282.179 60.0673ZM282.179 61.1337C281.347 61.1337 280.75 61.6962 280.75 62.5634C280.75 63.4306 281.347 63.9814 282.179 63.9697C282.988 63.9814 283.585 63.4306 283.597 62.5634C283.585 61.6962 282.988 61.1337 282.179 61.1337ZM298.532 56.704V67.2978H297.22V56.704H298.532ZM295.368 57.829C295.368 60.9814 294.15 63.665 290.435 65.4228L289.755 64.3798C292.527 63.0614 293.816 61.2685 294.044 58.8603H290.294V57.829H295.368Z" fill="white"/>
<path d="M261.585 81.8365C261.585 78.7538 264.084 76.2547 267.167 76.2547C267.783 76.2547 268.283 76.7546 268.283 77.3711V108.629C268.283 109.245 267.783 109.745 267.167 109.745C264.084 109.745 261.585 107.246 261.585 104.163V81.8365Z" fill="white"/>
<path d="M270.962 78.8348C270.962 77.4099 272.117 76.2548 273.542 76.2548H277.759C279.184 76.2548 280.339 77.4099 280.339 78.8348V107.165C280.339 108.59 279.184 109.745 277.759 109.745H273.542C272.117 109.745 270.962 108.59 270.962 107.165V78.8348Z" fill="white"/>
<path d="M289.717 77.3711C289.717 76.7546 290.217 76.2548 290.833 76.2548C293.916 76.2548 296.415 78.7538 296.415 81.8365V104.163C296.415 107.246 293.916 109.745 290.833 109.745C290.217 109.745 289.717 109.245 289.717 108.629V77.3711Z" fill="white"/>
<path d="M283.019 78.2642C283.019 77.1544 283.918 76.2548 285.028 76.2548C286.138 76.2548 287.037 77.1544 287.037 78.2642V107.736C287.037 108.846 286.138 109.745 285.028 109.745C283.918 109.745 283.019 108.846 283.019 107.736V78.2642Z" fill="white"/>
</svg>
