<svg width="40" height="55" viewBox="0 0 40 55" fill="none" xmlns="http://www.w3.org/2000/svg">
<path d="M35.4402 27.4999C33.4406 25.8238 30.8985 24.9341 28.2902 24.9974H11.5234C10.7589 25.0167 9.99843 24.8816 9.28742 24.6001C8.57641 24.3186 7.92951 23.8965 7.38545 23.3591C6.84139 22.8217 6.41135 22.1801 6.12109 21.4726C5.83082 20.7651 5.6863 20.0063 5.69616 19.2417C5.67752 18.9441 5.67752 18.6456 5.69616 18.3479C5.92158 16.9816 6.63804 15.7445 7.711 14.869C8.78396 13.9936 10.1396 13.5399 11.5234 13.5932H28.0399C29.3872 13.592 30.6911 14.0694 31.7191 14.9402C32.7471 15.8111 33.4323 17.0188 33.6527 18.3479H39.0152C38.7907 15.5914 37.5371 13.0202 35.5036 11.1457C33.4701 9.27117 30.8056 8.23053 28.0399 8.23068H22.3914V0.00817871H17.9227V8.23068H11.5234C8.75772 8.23053 6.09327 9.27117 4.05976 11.1457C2.02626 13.0202 0.772646 15.5914 0.548158 18.3479C0.52952 18.6456 0.52952 18.9441 0.548158 19.2417C0.548158 20.683 0.832041 22.1101 1.3836 23.4417C1.93516 24.7733 2.74359 25.9832 3.76273 27.0024C5.82099 29.0606 8.61259 30.2169 11.5234 30.2169H28.4689C29.2273 30.1978 29.9819 30.3308 30.6881 30.6079C31.3944 30.885 32.038 31.3006 32.581 31.8304C33.1241 32.3601 33.5556 32.9932 33.8502 33.6924C34.1448 34.3915 34.2964 35.1425 34.2962 35.9012C34.3307 36.3056 34.3307 36.7122 34.2962 37.1167C34.0123 38.3746 33.3092 39.4985 32.3023 40.3041C31.2953 41.1096 30.0444 41.5489 28.7549 41.5497H11.9524C10.6629 41.5489 9.41199 41.1096 8.40506 40.3041C7.39813 39.4985 6.69501 38.3746 6.41116 37.1167H1.01291C1.32014 39.8028 2.60486 42.282 4.62229 44.0818C6.63971 45.8817 9.2488 46.8764 11.9524 46.8764H17.9227V54.9917H22.3914V46.8764H28.4689C31.1725 46.8764 33.7816 45.8817 35.799 44.0818C37.8165 42.282 39.1012 39.8028 39.4084 37.1167V35.9012C39.4041 34.2954 39.0463 32.7103 38.3605 31.2583C37.6747 29.8064 36.6777 28.5232 35.4402 27.4999Z" fill="#FF8246"/>
</svg>
