<svg width="20" height="20" viewBox="0 0 20 20" fill="none" xmlns="http://www.w3.org/2000/svg">
<path d="M6.04263 15.8748C7.41803 15.8748 8.33802 16.3889 8.74392 16.6788C8.89313 16.7615 9.316 17.0101 9.40686 17.0182V4.48906C8.86838 3.48634 7.28544 2.67454 5.64487 2.67454C3.57294 2.67454 1.81639 3.86784 1.42676 4.67151V16.3726C1.42676 16.9196 1.74992 17.1268 2.13956 17.1268C2.45424 17.1268 2.66143 17.0189 2.86049 16.8531C3.34948 16.414 4.50106 15.8748 6.04263 15.8748ZM13.766 15.8751C15.3073 15.8751 16.4511 16.414 16.9482 16.8531C17.1384 17.0104 17.346 17.1264 17.6606 17.1264C18.0503 17.1264 18.3734 16.9196 18.3734 16.3726V4.6708C17.9838 3.86678 16.2354 2.67383 14.1635 2.67383C12.5229 2.67383 10.9399 3.48563 10.4015 4.48836V17.0352C10.4927 17.0267 10.9152 16.77 11.0725 16.6788C11.4703 16.3889 12.3903 15.8751 13.766 15.8751Z" fill="currentColor"/>
</svg>
