<svg width="20" height="20" viewBox="0 0 20 20" fill="none" xmlns="http://www.w3.org/2000/svg">
<path d="M7.49017 5.91071C7.5456 5.79977 7.63308 5.70805 7.74127 5.64744C7.84946 5.58683 7.97337 5.56013 8.09692 5.57081C8.22047 5.58148 8.33796 5.62903 8.43416 5.70729C8.53036 5.78555 8.60082 5.89091 8.6364 6.00971L10.0441 10.7029L11.2042 8.38571C11.2556 8.28295 11.3346 8.19653 11.4323 8.13613C11.5301 8.07573 11.6427 8.04373 11.7576 8.04373C11.8725 8.04373 11.9851 8.07573 12.0829 8.13613C12.1806 8.19653 12.2596 8.28295 12.311 8.38571L13.376 10.5188H17.1179C17.675 9.37026 17.9577 8.10796 17.9436 6.83148C17.9192 4.42957 15.9922 2.4751 13.6479 2.4751C11.7882 2.4751 10.5541 3.61746 9.89981 4.44736C9.24703 3.6163 8.01147 2.4751 6.15174 2.4751C3.80745 2.4751 1.88043 4.42957 1.85606 6.83148C1.84605 7.66091 1.9625 8.48701 2.2014 9.28135H5.80485L7.49017 5.91071Z" fill="currentColor"/>
<path d="M12.4402 11.4143L11.7561 10.0461L10.4532 12.6518C10.4018 12.7546 10.3228 12.841 10.225 12.9014C10.1273 12.9617 10.0147 12.9937 9.8998 12.9937C9.88253 12.9937 9.86474 12.9929 9.84644 12.9914C9.72259 12.9811 9.60471 12.9338 9.50814 12.8556C9.41158 12.7773 9.3408 12.6719 9.30503 12.5528L7.89737 7.85962L6.73722 10.1768C6.68607 10.2791 6.60762 10.3651 6.51055 10.4254C6.41348 10.4858 6.3016 10.5181 6.1873 10.5187H2.6817C3.04264 11.2738 3.52307 12.0171 4.123 12.7485C4.84887 13.6333 6.16487 15.0479 9.2041 17.1111C9.40906 17.2516 9.65172 17.3267 9.90019 17.3267C10.1487 17.3267 10.3913 17.2516 10.5963 17.1111C13.6355 15.0479 14.9515 13.6333 15.6774 12.7485C15.9388 12.4303 16.184 12.0991 16.4121 11.7562H12.9936C12.8787 11.7562 12.766 11.7242 12.6683 11.6639C12.5706 11.6035 12.4916 11.5171 12.4402 11.4143ZM17.9436 10.5187H17.1179C16.9122 10.9474 16.6764 11.3609 16.4121 11.7562H17.9436C18.1077 11.7562 18.265 11.691 18.3811 11.575C18.4971 11.4589 18.5623 11.3015 18.5623 11.1374C18.5623 10.9733 18.4971 10.816 18.3811 10.6999C18.265 10.5839 18.1077 10.5187 17.9436 10.5187ZM1.85605 9.2812C1.69195 9.2812 1.53457 9.34639 1.41853 9.46242C1.30249 9.57846 1.2373 9.73584 1.2373 9.89995C1.2373 10.064 1.30249 10.2214 1.41853 10.3375C1.53457 10.4535 1.69195 10.5187 1.85605 10.5187H2.6817C2.49032 10.119 2.32975 9.70533 2.20139 9.2812H1.85605Z" fill="currentColor"/>
</svg>
