<svg width="20" height="20" viewBox="0 0 20 20" fill="none" xmlns="http://www.w3.org/2000/svg">
<path d="M3.08817 2.3231C3.10349 2.13692 3.18998 1.96381 3.32966 1.83977C3.46935 1.71573 3.65147 1.6503 3.83815 1.6571C4.02484 1.6639 4.20172 1.7424 4.33201 1.87628C4.4623 2.01015 4.53597 2.1891 4.5377 2.3759V6.08345C4.5377 6.2202 4.59202 6.35136 4.68872 6.44805C4.78542 6.54475 4.91657 6.59908 5.05332 6.59908C5.19007 6.59908 5.32122 6.54475 5.41792 6.44805C5.51462 6.35136 5.56895 6.2202 5.56895 6.08345V2.26865C5.56895 2.10455 5.63413 1.94717 5.75017 1.83113C5.86621 1.71509 6.02359 1.6499 6.1877 1.6499C6.3518 1.6499 6.50918 1.71509 6.62522 1.83113C6.74126 1.94717 6.80645 2.10455 6.80645 2.26865V6.08345C6.80645 6.2202 6.86077 6.35136 6.95747 6.44805C7.05417 6.54475 7.18532 6.59908 7.32207 6.59908C7.45882 6.59908 7.58997 6.54475 7.68667 6.44805C7.78337 6.35136 7.8377 6.2202 7.8377 6.08345V2.3759C7.83942 2.1891 7.91309 2.01015 8.04338 1.87628C8.17367 1.7424 8.35055 1.6639 8.53724 1.6571C8.72392 1.6503 8.90604 1.71573 9.04573 1.83977C9.18541 1.96381 9.2719 2.13692 9.28722 2.3231C9.3227 2.828 9.4877 5.25515 9.4877 6.5999C9.4877 7.71365 8.93494 8.6987 8.09179 9.29518C7.91359 9.4214 7.8707 9.55505 7.87482 9.6227C7.9763 11.1721 8.2502 15.4125 8.2502 16.0849C8.2502 16.6319 8.0329 17.1565 7.6461 17.5433C7.25931 17.9301 6.7347 18.1474 6.1877 18.1474C5.64069 18.1474 5.11608 17.9301 4.72929 17.5433C4.34249 17.1565 4.1252 16.6319 4.1252 16.0849C4.1252 15.4117 4.3991 11.1721 4.50057 9.6227C4.5047 9.55505 4.4618 9.4214 4.2836 9.29518C3.85221 8.99042 3.50028 8.58656 3.25737 8.11755C3.01447 7.64854 2.88769 7.12808 2.8877 6.5999C2.8877 5.25515 3.0527 2.828 3.08817 2.3231ZM10.7252 6.39365C10.7252 5.13553 11.225 3.92894 12.1146 3.03931C13.0042 2.14969 14.2108 1.6499 15.4689 1.6499C15.633 1.6499 15.7904 1.71509 15.9065 1.83113C16.0225 1.94717 16.0877 2.10455 16.0877 2.26865V9.28115C16.0877 9.5435 16.1751 10.8445 16.2733 12.2858L16.2774 12.3543C16.3847 13.9284 16.5002 15.6403 16.5002 16.0849C16.5002 16.6319 16.2829 17.1565 15.8961 17.5433C15.5093 17.9301 14.9847 18.1474 14.4377 18.1474C13.8907 18.1474 13.3661 17.9301 12.9793 17.5433C12.5925 17.1565 12.3752 16.6319 12.3752 16.0849C12.3752 15.6609 12.4808 13.9309 12.5831 12.3444C12.6342 11.5433 12.6862 10.767 12.725 10.1911L12.744 9.8999H12.1689C11.9793 9.8999 11.7916 9.86256 11.6164 9.79C11.4413 9.71745 11.2821 9.6111 11.1481 9.47704C11.014 9.34297 10.9076 9.18381 10.8351 9.00865C10.7625 8.83349 10.7252 8.64575 10.7252 8.45615V6.39365Z" fill="currentColor"/>
</svg>
