<svg width="20" height="20" viewBox="0 0 20 20" fill="none" xmlns="http://www.w3.org/2000/svg">
<path fill-rule="evenodd" clip-rule="evenodd" d="M5.48548 0.199951H6.26724C6.49002 0.199951 6.70367 0.288451 6.86121 0.445981C7.01874 0.603512 7.10723 0.817169 7.10723 1.03995C7.10723 1.26273 7.01874 1.47639 6.86121 1.63392C6.70367 1.79145 6.49002 1.87995 6.26724 1.87995H5.5202C4.72276 1.87995 4.17396 1.87995 3.7506 1.91579C3.33508 1.94939 3.1122 2.01099 2.95092 2.09387C2.58199 2.28181 2.28205 2.58174 2.09412 2.95067C2.01124 3.11195 1.94852 3.33483 1.91492 3.74923C1.88132 4.17483 1.8802 4.72251 1.8802 5.51995V6.26699C1.8802 6.48977 1.7917 6.70343 1.63417 6.86096C1.47663 7.01849 1.26298 7.10699 1.0402 7.10699C0.817413 7.10699 0.603756 7.01849 0.446226 6.86096C0.288695 6.70343 0.200195 6.48977 0.200195 6.26699V5.48523C0.200195 4.73035 0.200195 4.11435 0.241635 3.61259C0.283075 3.09403 0.373795 2.62475 0.596675 2.18795C0.945624 1.50322 1.50234 0.9465 2.18708 0.597551C2.625 0.373551 3.09428 0.283951 3.61284 0.241391C4.1146 0.199951 4.7306 0.199951 5.48548 0.199951ZM16.2509 1.91579C15.8242 1.87995 15.2776 1.87995 14.4802 1.87995H13.7332C13.5104 1.87995 13.2967 1.79145 13.1392 1.63392C12.9817 1.47639 12.8932 1.26273 12.8932 1.03995C12.8932 0.817169 12.9817 0.603512 13.1392 0.445981C13.2967 0.288451 13.5104 0.199951 13.7332 0.199951H14.5149C15.2698 0.199951 15.8869 0.199951 16.3876 0.241391C16.9061 0.282831 17.3754 0.373551 17.8133 0.596431C18.498 0.94538 19.0548 1.5021 19.4037 2.18683C19.6266 2.62475 19.7173 3.09403 19.7588 3.61259C19.8002 4.11323 19.8002 4.73035 19.8002 5.48523V6.26699C19.8002 6.48977 19.7117 6.70343 19.5542 6.86096C19.3966 7.01849 19.183 7.10699 18.9602 7.10699C18.7374 7.10699 18.5238 7.01849 18.3662 6.86096C18.2087 6.70343 18.1202 6.48977 18.1202 6.26699V5.51995C18.1202 4.72251 18.1202 4.17371 18.0844 3.75035C18.0508 3.33483 17.9892 3.11195 17.9063 2.95067C17.7183 2.58174 17.4184 2.28181 17.0495 2.09387C16.8882 2.01099 16.6653 1.94939 16.2509 1.91579ZM1.0402 12.8929C1.26298 12.8929 1.47663 12.9814 1.63417 13.1389C1.7917 13.2965 1.8802 13.5101 1.8802 13.7329V14.48C1.8802 15.2774 1.8802 15.8262 1.91604 16.2496C1.94964 16.6651 2.01124 16.888 2.09412 17.0504C2.28228 17.4188 2.58132 17.7179 2.95092 17.906C3.1122 17.9889 3.33508 18.0516 3.74948 18.0852C4.17508 18.1188 4.72276 18.12 5.5202 18.12H6.26724C6.49002 18.12 6.70367 18.2085 6.86121 18.366C7.01874 18.5235 7.10723 18.7372 7.10723 18.96C7.10723 19.1827 7.01874 19.3964 6.86121 19.5539C6.70367 19.7115 6.49002 19.8 6.26724 19.8H5.48548C4.7306 19.8 4.11348 19.7999 3.61284 19.7585C3.09428 19.7171 2.625 19.6264 2.1882 19.4035C1.50346 19.0545 0.946744 18.4978 0.597795 17.8131C0.373795 17.3752 0.284195 16.9059 0.241635 16.3873C0.200195 15.8867 0.200195 15.2696 0.200195 14.5147V13.7329C0.200195 13.5101 0.288695 13.2965 0.446226 13.1389C0.603756 12.9814 0.817413 12.8929 1.0402 12.8929ZM18.9602 12.8929C19.183 12.8929 19.3966 12.9814 19.5542 13.1389C19.7117 13.2965 19.8002 13.5101 19.8002 13.7329V14.5147C19.8002 15.2696 19.8002 15.8867 19.7588 16.3873C19.7173 16.9059 19.6266 17.3752 19.4037 17.8131C19.0548 18.4978 18.498 19.0545 17.8133 19.4035C17.3754 19.6264 16.9061 19.7171 16.3876 19.7585C15.8869 19.7999 15.2698 19.8 14.5149 19.8H13.7332C13.5104 19.8 13.2967 19.7115 13.1392 19.5539C12.9817 19.3964 12.8932 19.1827 12.8932 18.96C12.8932 18.7372 12.9817 18.5235 13.1392 18.366C13.2967 18.2085 13.5104 18.12 13.7332 18.12H14.4802C15.2776 18.12 15.8264 18.12 16.2498 18.0841C16.6653 18.0505 16.8882 17.9889 17.0506 17.906C17.4191 17.7179 17.7186 17.418 17.9063 17.0492C17.9892 16.888 18.0519 16.6651 18.0855 16.2507C18.1191 15.8251 18.1202 15.2774 18.1202 14.48V13.7329C18.1202 13.5101 18.2087 13.2965 18.3662 13.1389C18.5238 12.9814 18.7374 12.8929 18.9602 12.8929Z" fill="white"/>
<path fill-rule="evenodd" clip-rule="evenodd" d="M6.16245 3.56006H6.55669C6.84565 3.56006 7.10997 3.56006 7.33173 3.57798C7.57029 3.59814 7.83125 3.64182 8.08885 3.77398C8.45845 3.96214 8.75861 4.26118 8.94565 4.63078C9.07781 4.88838 9.12261 5.14934 9.14165 5.3879C9.15957 5.60966 9.15957 5.87398 9.15957 6.16294V6.55718C9.15957 6.84614 9.15957 7.11046 9.14165 7.33222C9.12637 7.59497 9.05978 7.85218 8.94565 8.08934C8.75801 8.4581 8.45848 8.75801 8.08997 8.94614C7.83237 9.0783 7.57029 9.1231 7.33173 9.14214C7.10997 9.16006 6.84565 9.16006 6.55669 9.16006H6.16245C5.87349 9.16006 5.60917 9.16006 5.38741 9.14214C5.12466 9.12685 4.86745 9.06027 4.63029 8.94614C4.26153 8.7585 3.96161 8.45897 3.77349 8.09046C3.65922 7.85295 3.59263 7.59535 3.57749 7.33222C3.55957 7.11046 3.55957 6.84614 3.55957 6.55718V6.16294C3.55957 5.87398 3.55957 5.60966 3.57749 5.3879C3.59278 5.12515 3.65936 4.86794 3.77349 4.63078C3.96142 4.26185 4.26136 3.96191 4.63029 3.77398C4.86745 3.65985 5.12466 3.59326 5.38741 3.57798C5.60917 3.56006 5.87349 3.56006 6.16245 3.56006ZM5.38741 5.27254C5.43178 5.26122 5.47719 5.25446 5.52293 5.25238C5.66853 5.24118 5.86341 5.24006 6.19045 5.24006H6.52645C6.85349 5.24006 7.04949 5.24006 7.19397 5.25238C7.23934 5.25454 7.28437 5.26129 7.32837 5.27254C7.37841 5.29863 7.4194 5.33923 7.44597 5.38902C7.45729 5.43339 7.46404 5.4788 7.46613 5.52454C7.47733 5.67014 7.47845 5.86502 7.47845 6.19206V6.52806C7.47845 6.8551 7.47845 7.0511 7.46613 7.19558C7.46397 7.24095 7.45722 7.28598 7.44597 7.32998C7.41988 7.38002 7.37928 7.42101 7.32949 7.44758C7.28512 7.4589 7.23971 7.46565 7.19397 7.46774C7.04837 7.47894 6.85349 7.48006 6.52645 7.48006H6.19045C5.86341 7.48006 5.66741 7.48006 5.52293 7.46774C5.47756 7.46558 5.43253 7.45882 5.38853 7.44758C5.33849 7.42149 5.2975 7.38089 5.27093 7.3311C5.25961 7.28673 5.25286 7.24132 5.25077 7.19558C5.23875 6.97329 5.23501 6.75063 5.23957 6.52806V6.19206C5.23957 5.86502 5.23957 5.66902 5.25189 5.52454C5.25405 5.47917 5.26081 5.43414 5.27205 5.39014C5.29814 5.3401 5.33762 5.2991 5.38741 5.27254ZM13.4425 3.56006H13.8367C14.1257 3.56006 14.39 3.56006 14.6117 3.57798C14.8503 3.59814 15.1113 3.64182 15.37 3.77398C15.7385 3.96214 16.0375 4.26118 16.2257 4.63078C16.3578 4.88838 16.4015 5.14934 16.4216 5.3879C16.4396 5.60966 16.4396 5.87398 16.4396 6.16294V6.55718C16.4396 6.84614 16.4396 7.11046 16.4216 7.33222C16.4064 7.59497 16.3398 7.85218 16.2257 8.08934C16.0377 8.45827 15.7378 8.7582 15.3689 8.94614C15.1113 9.0783 14.8503 9.1231 14.6117 9.14214C14.39 9.16006 14.1257 9.16006 13.8367 9.16006H13.4425C13.1535 9.16006 12.8892 9.16006 12.6674 9.14214C12.4047 9.12685 12.1475 9.06027 11.9103 8.94614C11.5415 8.7585 11.2416 8.45897 11.0535 8.09046C10.9392 7.85295 10.8726 7.59535 10.8575 7.33222C10.8396 7.11046 10.8396 6.84614 10.8396 6.55718V6.16294C10.8396 5.87398 10.8396 5.60966 10.8575 5.3879C10.8728 5.12515 10.9394 4.86794 11.0535 4.63078C11.2414 4.26185 11.5414 3.96191 11.9103 3.77398C12.1475 3.65985 12.4047 3.59326 12.6674 3.57798C12.8892 3.56006 13.1535 3.56006 13.4425 3.56006ZM12.6685 5.27254C12.7129 5.26122 12.7583 5.25446 12.8041 5.25238C12.9496 5.24118 13.1445 5.24006 13.4716 5.24006H13.8076C14.1346 5.24006 14.3306 5.24006 14.4751 5.25238C14.5205 5.25454 14.5655 5.26129 14.6095 5.27254C14.6595 5.29863 14.7005 5.33923 14.7271 5.38902C14.7384 5.43339 14.7452 5.4788 14.7473 5.52454C14.7585 5.67014 14.7596 5.86502 14.7596 6.19206V6.52806C14.7596 6.8551 14.7596 7.0511 14.7473 7.19558C14.7451 7.24095 14.7383 7.28598 14.7271 7.32998C14.7007 7.38018 14.6597 7.42119 14.6095 7.44758C14.5655 7.45882 14.5205 7.46558 14.4751 7.46774C14.3295 7.47894 14.1346 7.48006 13.8076 7.48006H13.4716C13.1445 7.48006 12.9485 7.48006 12.8041 7.46774C12.7587 7.46558 12.7137 7.45882 12.6697 7.44758C12.6196 7.42149 12.5786 7.38089 12.5521 7.3311C12.5407 7.28673 12.534 7.24132 12.5319 7.19558C12.5195 6.9733 12.5154 6.75064 12.5196 6.52806V6.19206C12.5196 5.86502 12.5196 5.66902 12.5319 5.52454C12.5341 5.47917 12.5408 5.43414 12.5521 5.39014C12.5781 5.3401 12.6187 5.2991 12.6685 5.27254ZM6.16245 10.8401H6.55669C6.84565 10.8401 7.10997 10.8401 7.33173 10.858C7.57029 10.8781 7.83125 10.9218 8.08885 11.054C8.45845 11.241 8.75861 11.5412 8.94565 11.9108C9.07781 12.1684 9.12261 12.4293 9.14165 12.6679C9.15957 12.8897 9.15957 13.154 9.15957 13.4429V13.8372C9.15957 14.1261 9.15957 14.3905 9.14165 14.6122C9.12651 14.8753 9.05992 15.133 8.94565 15.3705C8.75782 15.7388 8.45831 16.0383 8.08997 16.2261C7.83237 16.3583 7.57029 16.402 7.33173 16.4221C7.10997 16.4401 6.84565 16.4401 6.55669 16.4401H6.16245C5.87349 16.4401 5.60917 16.4401 5.38741 16.4221C5.12466 16.4069 4.86745 16.3403 4.63029 16.2261C4.26136 16.0382 3.96142 15.7383 3.77349 15.3693C3.65936 15.1322 3.59278 14.875 3.57749 14.6122C3.55957 14.3905 3.55957 14.1261 3.55957 13.8372V13.4429C3.55957 13.154 3.55957 12.8897 3.57749 12.6679C3.59278 12.4052 3.65936 12.1479 3.77349 11.9108C3.96142 11.5419 4.26136 11.2419 4.63029 11.054C4.88789 10.9218 5.14885 10.877 5.38741 10.858C5.60917 10.8401 5.87349 10.8401 6.16245 10.8401ZM5.38853 12.5525C5.4329 12.5412 5.47831 12.5345 5.52405 12.5324C5.66965 12.5212 5.86453 12.5201 6.19157 12.5201H6.52757C6.85461 12.5201 7.05061 12.5201 7.19509 12.5324C7.24046 12.5345 7.28549 12.5413 7.32949 12.5525C7.37953 12.5786 7.42052 12.6192 7.44709 12.669C7.45841 12.7134 7.46517 12.7588 7.46725 12.8045C7.47845 12.9501 7.47957 13.145 7.47957 13.4721V13.8081C7.47957 14.1351 7.47957 14.3311 7.46725 14.4756C7.46509 14.5209 7.45833 14.566 7.44709 14.61C7.421 14.66 7.3804 14.701 7.33061 14.7276C7.28624 14.7389 7.24083 14.7457 7.19509 14.7477C7.04949 14.7589 6.85461 14.7601 6.52757 14.7601H6.19157C5.86453 14.7601 5.66853 14.7601 5.52405 14.7477C5.47868 14.7456 5.43365 14.7388 5.38965 14.7276C5.33944 14.7012 5.29843 14.6602 5.27205 14.61C5.26081 14.566 5.25405 14.5209 5.25189 14.4756C5.23949 14.2533 5.23538 14.0306 5.23957 13.8081V13.4721C5.23957 13.145 5.23957 12.949 5.25189 12.8045C5.25405 12.7592 5.26081 12.7141 5.27205 12.6701C5.29814 12.6201 5.33874 12.5791 5.38853 12.5525ZM11.9596 10.8401C12.1824 10.8401 12.396 10.9286 12.5535 11.0861C12.7111 11.2436 12.7996 11.4573 12.7996 11.6801V12.5201C12.7996 12.6746 12.925 12.8001 13.0796 12.8001H14.7596C15.8415 12.8001 16.7196 13.6781 16.7196 14.7601V15.6001C16.7196 15.8228 16.6311 16.0365 16.4735 16.194C16.316 16.3516 16.1024 16.4401 15.8796 16.4401C15.6568 16.4401 15.4431 16.3516 15.2856 16.194C15.1281 16.0365 15.0396 15.8228 15.0396 15.6001V14.7601C15.0396 14.6858 15.0101 14.6146 14.9576 14.5621C14.9051 14.5096 14.8338 14.4801 14.7596 14.4801H13.0796C12.5597 14.4801 12.0612 14.2736 11.6936 13.906C11.3261 13.5384 11.1196 13.0399 11.1196 12.5201V11.6801C11.1196 11.4573 11.2081 11.2436 11.3656 11.0861C11.5231 10.9286 11.7368 10.8401 11.9596 10.8401Z" fill="white"/>
</svg>
