<svg width="48" height="55" viewBox="0 0 48 55" fill="none" xmlns="http://www.w3.org/2000/svg">
<path d="M18.1494 16.0106C18.1494 14.8536 18.4925 13.7226 19.1353 12.7606C19.7781 11.7985 20.6918 11.0487 21.7607 10.606C22.8297 10.1632 24.0059 10.0473 25.1407 10.2731C26.2755 10.4988 27.3179 11.0559 28.136 11.8741C28.9541 12.6922 29.5113 13.7346 29.737 14.8694C29.9627 16.0042 29.8469 17.1804 29.4041 18.2493C28.9613 19.3183 28.2115 20.2319 27.2495 20.8747C26.2875 21.5175 25.1564 21.8606 23.9994 21.8606V23.8106M23.9994 31.8524C23.7408 31.8524 23.4928 31.7497 23.31 31.5669C23.1271 31.384 23.0244 31.136 23.0244 30.8774C23.0244 30.6189 23.1271 30.3709 23.31 30.188C23.4928 30.0052 23.7408 29.9024 23.9994 29.9024C24.258 29.9024 24.506 30.0052 24.6888 30.188C24.8717 30.3709 24.9744 30.6189 24.9744 30.8774C24.9744 31.136 24.8717 31.384 24.6888 31.5669C24.506 31.7497 24.258 31.8524 23.9994 31.8524Z" stroke="#FF8246" stroke-width="4" stroke-linecap="round" stroke-linejoin="round"/>
<path d="M45.4498 52.8499H8.3998C6.84829 52.8499 5.36032 52.2336 4.26323 51.1365C3.16614 50.0394 2.5498 48.5514 2.5498 46.9999C2.5498 45.4484 3.16614 43.9604 4.26323 42.8633C5.36032 41.7662 6.84829 41.1499 8.3998 41.1499H41.5498M41.5498 41.1499C42.5842 41.1499 43.5761 40.739 44.3075 40.0076C45.0389 39.2762 45.4498 38.2842 45.4498 37.2499V6.0499C45.4498 5.01556 45.0389 4.02358 44.3075 3.29219C43.5761 2.56079 42.5842 2.1499 41.5498 2.1499H8.3998C6.87494 2.14936 5.41013 2.74424 4.31742 3.80781C3.22471 4.87138 2.59047 6.31958 2.5498 7.8439V46.8439M41.5498 41.1499V52.8499" stroke="#FF8246" stroke-width="4" stroke-linecap="round" stroke-linejoin="round"/>
</svg>
