<svg width="23" height="21" viewBox="0 0 23 21" fill="none" xmlns="http://www.w3.org/2000/svg">
<path d="M20.2913 2.68058C19.7805 2.14778 19.1741 1.72514 18.5066 1.43678C17.8392 1.14842 17.1238 1 16.4013 1C15.6788 1 14.9634 1.14842 14.2959 1.43678C13.6285 1.72514 13.022 2.14778 12.5113 2.68058L11.4513 3.78579L10.3913 2.68058C9.3596 1.60488 7.96032 1.00056 6.50129 1.00056C5.04226 1.00056 3.64298 1.60488 2.61129 2.68058C1.5796 3.75627 1 5.21523 1 6.7365C1 8.25777 1.5796 9.71673 2.61129 10.7924L3.67129 11.8976L11.4513 20.0095L19.2313 11.8976L20.2913 10.7924C20.8023 10.2599 21.2076 9.62759 21.4842 8.93166C21.7608 8.23573 21.9031 7.4898 21.9031 6.7365C21.9031 5.9832 21.7608 5.23727 21.4842 4.54134C21.2076 3.84541 20.8023 3.21312 20.2913 2.68058Z" fill="#FF8246" stroke="#FF8246" stroke-width="2" stroke-linecap="round" stroke-linejoin="round"/>
</svg>
