<svg width="133" height="60" viewBox="0 0 133 60" fill="none" xmlns="http://www.w3.org/2000/svg">
<g filter="url(#filter0_d_1045_7144)">
<rect x="10" y="8" width="111" height="40" rx="20" fill="#2B2B2B" shape-rendering="crispEdges"/>
<g clip-path="url(#clip0_1045_7144)">
<path d="M25.375 22.75V36.75L31.5 33.25L38.5 36.75L44.625 33.25V19.25L38.5 22.75L31.5 19.25L25.375 22.75Z" stroke="white" stroke-width="2" stroke-linecap="round" stroke-linejoin="round"/>
<path d="M31.5 19.25V33.25" stroke="white" stroke-width="2" stroke-linecap="round" stroke-linejoin="round"/>
<path d="M38.5 22.75V36.75" stroke="white" stroke-width="2" stroke-linecap="round" stroke-linejoin="round"/>
</g>
<path d="M58.0652 24.6668C58.0652 26.952 59.5582 29.3133 61.6605 30.2121L60.8684 31.3395C59.2611 30.6311 57.9814 29.1305 57.3492 27.3023C56.717 29.2523 55.4297 30.9129 53.8453 31.6898L53.0074 30.5473C55.0641 29.5875 56.5875 27.0129 56.6027 24.6668V23.2195H53.4797V22.016H61.173V23.2195H58.0652V24.6668ZM64.3418 20.6449V34.2949H62.8945V20.6449H64.3418ZM77.5805 26.9367V28.0945H73.452V31.4309H79.0125V32.6191H66.5203V31.4309H72.0199V28.0945H68.0742V21.6961H77.4586V22.8691H69.5215V26.9367H77.5805ZM92.4949 31.4004V32.6039H80.0027V31.4004H85.5023V28.5973H81.4348V21.5742H82.882V23.9203H89.5852V21.5742H91.0172V28.5973H86.9344V31.4004H92.4949ZM82.882 27.4242H89.5852V25.0934H82.882V27.4242ZM104.835 20.6449V34.2949H103.372V20.6449H104.835ZM100.767 22.1074C100.767 26.0988 99.0609 29.5723 94.384 31.8117L93.6223 30.6387C97.2557 28.9096 99.0229 26.4492 99.3047 23.2652H94.2773V22.1074H100.767Z" fill="white"/>
</g>
<defs>
<filter id="filter0_d_1045_7144" x="0.799926" y="0.844387" width="131.445" height="60.4446" filterUnits="userSpaceOnUse" color-interpolation-filters="sRGB">
<feFlood flood-opacity="0" result="BackgroundImageFix"/>
<feColorMatrix in="SourceAlpha" type="matrix" values="0 0 0 0 0 0 0 0 0 0 0 0 0 0 0 0 0 0 127 0" result="hardAlpha"/>
<feOffset dx="1.02223" dy="3.06669"/>
<feGaussianBlur stdDeviation="5.11115"/>
<feComposite in2="hardAlpha" operator="out"/>
<feColorMatrix type="matrix" values="0 0 0 0 0.423016 0 0 0 0 0.193675 0 0 0 0 0.193675 0 0 0 0.15 0"/>
<feBlend mode="normal" in2="BackgroundImageFix" result="effect1_dropShadow_1045_7144"/>
<feBlend mode="normal" in="SourceGraphic" in2="effect1_dropShadow_1045_7144" result="shape"/>
</filter>
<clipPath id="clip0_1045_7144">
<rect width="21" height="21" fill="white" transform="translate(24.5 17.5)"/>
</clipPath>
</defs>
</svg>
