<svg width="21" height="20" viewBox="0 0 21 20" fill="none" xmlns="http://www.w3.org/2000/svg">
<path d="M10.0876 14.9429L7.24133 13.5198M7.24133 13.5198L1.54883 16.366V4.03229L7.24133 1.18604M7.24133 13.5198V1.18604M7.24133 1.18604L12.9338 4.03229M12.9338 4.03229L18.6263 1.18604V8.30166M12.9338 4.03229V9.25041M16.7288 14.4685V14.478M18.7411 16.4808C19.1393 16.0828 19.4104 15.5757 19.5203 15.0235C19.6302 14.4714 19.5739 13.899 19.3585 13.3789C19.1431 12.8588 18.7783 12.4142 18.3102 12.1014C17.8421 11.7886 17.2918 11.6217 16.7288 11.6217C16.1659 11.6217 15.6155 11.7886 15.1474 12.1014C14.6794 12.4142 14.3146 12.8588 14.0992 13.3789C13.8838 13.899 13.8274 14.4714 13.9373 15.0235C14.0472 15.5757 14.3184 16.0828 14.7165 16.4808C15.1131 16.878 15.7839 17.4723 16.7288 18.2635C17.7263 17.4191 18.397 16.8249 18.7411 16.4808Z" stroke="currentColor" stroke-width="1.8975" stroke-linecap="round" stroke-linejoin="round"/>
</svg>
