<svg width="44" height="44" viewBox="0 0 44 44" fill="none" xmlns="http://www.w3.org/2000/svg">
<g clip-path="url(#clip0_2894_11871)">
<path d="M13.2256 18.7793C13.2256 16.5368 14.1164 14.386 15.7022 12.8003C17.2879 11.2146 19.4386 10.3237 21.6812 10.3237C23.9237 10.3237 26.0745 11.2146 27.6602 12.8003C29.2459 14.386 30.1368 16.5368 30.1368 18.7793C30.1368 21.0219 29.2459 23.1726 27.6602 24.7583C26.0745 26.3441 23.9237 27.2349 21.6812 27.2349C19.4386 27.2349 17.2879 26.3441 15.7022 24.7583C14.1164 23.1726 13.2256 21.0219 13.2256 18.7793Z" fill="white"/>
<path d="M17.3447 18.7791C17.3447 17.629 17.8016 16.5261 18.6148 15.7129C19.428 14.8997 20.5309 14.4429 21.6809 14.4429C22.831 14.4429 23.9339 14.8997 24.7471 15.7129C25.5603 16.5261 26.0171 17.629 26.0171 18.7791C26.0171 19.9291 25.5603 21.032 24.7471 21.8452C23.9339 22.6584 22.831 23.1153 21.6809 23.1153C20.5309 23.1153 19.428 22.6584 18.6148 21.8452C17.8016 21.032 17.3447 19.9291 17.3447 18.7791Z" fill="#FF8246"/>
<path fill-rule="evenodd" clip-rule="evenodd" d="M2.89062 18.7791C2.89369 13.7977 4.87472 9.02127 8.39823 5.49992C11.9217 1.97858 16.6994 0.000487338 21.6808 0.000488281C32.0559 0.000488281 40.471 8.40983 40.471 18.7791C40.471 26.5091 36.6031 32.6347 32.4577 36.7744C30.6226 38.6118 28.5693 40.2176 26.3437 41.5557C25.4128 42.105 24.5427 42.5386 23.7853 42.8335C23.0713 43.1168 22.3226 43.3365 21.6808 43.3365C21.0391 43.3365 20.2903 43.1168 19.5763 42.8335C18.6923 42.4732 17.8371 42.046 17.018 41.5557C14.7924 40.2176 12.739 38.6118 10.9039 36.7744C6.75852 32.6347 2.89062 26.5091 2.89062 18.7791ZM21.6808 11.555C19.7641 11.555 17.9259 12.3164 16.5706 13.6718C15.2152 15.0271 14.4538 16.8653 14.4538 18.782C14.4538 20.6987 15.2152 22.537 16.5706 23.8923C17.9259 25.2476 19.7641 26.009 21.6808 26.009C23.5975 26.009 25.4358 25.2476 26.7911 23.8923C28.1464 22.537 28.9078 20.6987 28.9078 18.782C28.9078 16.8653 28.1464 15.0271 26.7911 13.6718C25.4358 12.3164 23.5975 11.555 21.6808 11.555Z" fill="#FF8246"/>
</g>
<defs>
<clipPath id="clip0_2894_11871">
<rect width="43.362" height="43.362" fill="white"/>
</clipPath>
</defs>
</svg>
