<svg width="50" height="49" viewBox="0 0 50 49" fill="none" xmlns="http://www.w3.org/2000/svg">
<path d="M14.1657 8.25037H8.74902V13.667H14.1657V8.25037ZM0.624023 6.21912C0.624023 4.60295 1.26604 3.05298 2.40884 1.91018C3.55164 0.767384 5.10161 0.125366 6.71777 0.125366H16.1969C17.8131 0.125366 19.3631 0.767384 20.5059 1.91018C21.6487 3.05298 22.2907 4.60295 22.2907 6.21912V15.6983C22.2907 17.3144 21.6487 18.8644 20.5059 20.0072C19.3631 21.15 17.8131 21.792 16.1969 21.792H6.71777C5.10161 21.792 3.55164 21.15 2.40884 20.0072C1.26604 18.8644 0.624023 17.3144 0.624023 15.6983V6.21912ZM6.71777 4.18787C6.17905 4.18787 5.6624 4.40187 5.28146 4.7828C4.90053 5.16374 4.68652 5.6804 4.68652 6.21912V15.6983C4.68652 16.8195 5.59652 17.7295 6.71777 17.7295H16.1969C16.7357 17.7295 17.2523 17.5155 17.6332 17.1346C18.0142 16.7537 18.2282 16.237 18.2282 15.6983V6.21912C18.2282 5.6804 18.0142 5.16374 17.6332 4.7828C17.2523 4.40187 16.7357 4.18787 16.1969 4.18787H6.71777ZM8.74902 35.3337H14.1657V40.7504H8.74902V35.3337ZM0.624023 33.3024C0.624023 31.6863 1.26604 30.1363 2.40884 28.9935C3.55164 27.8507 5.10161 27.2087 6.71777 27.2087H16.1969C17.8131 27.2087 19.3631 27.8507 20.5059 28.9935C21.6487 30.1363 22.2907 31.6863 22.2907 33.3024V42.7816C22.2907 44.3978 21.6487 45.9477 20.5059 47.0905C19.3631 48.2333 17.8131 48.8754 16.1969 48.8754H6.71777C5.10161 48.8754 3.55164 48.2333 2.40884 47.0905C1.26604 45.9477 0.624023 44.3978 0.624023 42.7816V33.3024ZM6.71777 31.2712C6.17905 31.2712 5.6624 31.4852 5.28146 31.8661C4.90053 32.2471 4.68652 32.7637 4.68652 33.3024V42.7816C4.68652 43.9029 5.59652 44.8129 6.71777 44.8129H16.1969C16.7357 44.8129 17.2523 44.5989 17.6332 44.2179C18.0142 43.837 18.2282 43.3203 18.2282 42.7816V33.3024C18.2282 32.7637 18.0142 32.2471 17.6332 31.8661C17.2523 31.4852 16.7357 31.2712 16.1969 31.2712H6.71777ZM41.249 8.25037H35.8324V13.667H41.249V8.25037ZM33.8011 0.125366C32.1849 0.125366 30.635 0.767384 29.4922 1.91018C28.3494 3.05298 27.7074 4.60295 27.7074 6.21912V15.6983C27.7074 17.3144 28.3494 18.8644 29.4922 20.0072C30.635 21.15 32.1849 21.792 33.8011 21.792H43.2803C44.8964 21.792 46.4464 21.15 47.5892 20.0072C48.732 18.8644 49.374 17.3144 49.374 15.6983V6.21912C49.374 4.60295 48.732 3.05298 47.5892 1.91018C46.4464 0.767384 44.8964 0.125366 43.2803 0.125366H33.8011ZM31.7699 6.21912C31.7699 5.6804 31.9839 5.16374 32.3648 4.7828C32.7457 4.40187 33.2624 4.18787 33.8011 4.18787H43.2803C43.819 4.18787 44.3357 4.40187 44.7166 4.7828C45.0975 5.16374 45.3115 5.6804 45.3115 6.21912V15.6983C45.3115 16.237 45.0975 16.7537 44.7166 17.1346C44.3357 17.5155 43.819 17.7295 43.2803 17.7295H33.8011C33.2624 17.7295 32.7457 17.5155 32.3648 17.1346C31.9839 16.7537 31.7699 16.237 31.7699 15.6983V6.21912ZM27.7074 27.2087H35.1553V34.6566H27.7074V27.2087ZM41.9261 34.6566H35.1553V41.4274H27.7074V48.8754H35.1553V41.4274H41.9261V48.8754H49.374V41.4274H41.9261V34.6566ZM41.9261 34.6566V27.2087H49.374V34.6566H41.9261Z" fill="#FF8246"/>
</svg>
