<svg width="23" height="23" viewBox="0 0 23 23" fill="none" xmlns="http://www.w3.org/2000/svg">
<path d="M7.2099 2.9199H3.9924C3.70796 2.9199 3.43516 3.0329 3.23403 3.23403C3.0329 3.43516 2.9199 3.70796 2.9199 3.9924V6.1374C2.9199 6.42185 3.0329 6.69464 3.23403 6.89577C3.43516 7.09691 3.70796 7.2099 3.9924 7.2099H6.1374C6.42185 7.2099 6.69464 7.09691 6.89577 6.89577C7.09691 6.69464 7.2099 6.42185 7.2099 6.1374V2.9199ZM4.00313 9.3549V20.0424H6.1374V14.7174C6.1374 14.1485 6.36339 13.6029 6.76566 13.2007C7.16792 12.7984 7.71351 12.5724 8.2824 12.5724H10.4274C10.9963 12.5724 11.5419 12.7984 11.9441 13.2007C12.3464 13.6029 12.5724 14.1485 12.5724 14.7174V20.0424H19.0213V9.3549H16.8624C16.0387 9.3549 15.2858 9.04495 14.7174 8.53551C14.1275 9.06316 13.3638 9.35488 12.5724 9.3549H10.4274C9.60372 9.3549 8.85083 9.04495 8.2824 8.53551C7.69251 9.06316 6.92884 9.35488 6.1374 9.3549H4.00313ZM1.85813 8.54624C1.51742 8.24422 1.24468 7.87334 1.05795 7.45809C0.871222 7.04285 0.774747 6.5927 0.774903 6.1374V3.9924C0.774903 3.13907 1.11389 2.32068 1.71729 1.71729C2.32068 1.11389 3.13907 0.774902 3.9924 0.774902L19.0074 0.774902C19.8607 0.774902 20.6791 1.11389 21.2825 1.71729C21.8859 2.32068 22.2249 3.13907 22.2249 3.9924V6.1374C22.2249 7.08335 21.8174 7.93491 21.1663 8.52371V20.0424C21.1663 20.6113 20.9404 21.1568 20.5381 21.5591C20.1358 21.9614 19.5902 22.1874 19.0213 22.1874H10.8274C10.6956 22.2124 10.5616 22.2249 10.4274 22.2249H8.2824C8.14817 22.2249 8.01424 22.2124 7.88236 22.1874H4.0042C3.43531 22.1874 2.88972 21.9614 2.48746 21.5591C2.08519 21.1568 1.8592 20.6113 1.8592 20.0424V8.54516L1.85813 8.54624ZM10.4274 20.0434V14.7174H8.2824V20.0424L10.4274 20.0434ZM13.6449 2.9199H9.3549V6.1374C9.3549 6.42185 9.4679 6.69464 9.66903 6.89577C9.87016 7.09691 10.143 7.2099 10.4274 7.2099H12.5724C12.8568 7.2099 13.1296 7.09691 13.3308 6.89577C13.5319 6.69464 13.6449 6.42185 13.6449 6.1374V2.9199ZM15.7899 2.9199V6.1374C15.7899 6.42185 15.9029 6.69464 16.104 6.89577C16.3052 7.09691 16.578 7.2099 16.8624 7.2099H19.0074C19.2918 7.2099 19.5646 7.09691 19.7658 6.89577C19.9669 6.69464 20.0799 6.42185 20.0799 6.1374V3.9924C20.0799 3.70796 19.9669 3.43516 19.7658 3.23403C19.5646 3.0329 19.2918 2.9199 19.0074 2.9199H15.7899ZM15.7899 12.5724H16.8624C17.1468 12.5724 17.4196 12.6854 17.6208 12.8865C17.8219 13.0877 17.9349 13.3605 17.9349 13.6449V16.8624C17.9349 17.1468 17.8219 17.4196 17.6208 17.6208C17.4196 17.8219 17.1468 17.9349 16.8624 17.9349H15.7899C15.5055 17.9349 15.2327 17.8219 15.0315 17.6208C14.8304 17.4196 14.7174 17.1468 14.7174 16.8624V13.6449C14.7174 13.3605 14.8304 13.0877 15.0315 12.8865C15.2327 12.6854 15.5055 12.5724 15.7899 12.5724Z" fill="#FF8246"/>
</svg>
