<svg width="20" height="20" viewBox="0 0 20 20" fill="none" xmlns="http://www.w3.org/2000/svg">
<path d="M15.51 5.28C13.9557 3.2076 11.979 2.0625 9.89996 2.0625C7.82096 2.0625 5.84426 3.2076 4.28996 5.28C3.12094 6.83843 1.71101 8.943 1.51631 11.1573C1.41649 12.2991 1.63759 13.4681 2.35699 14.581C3.06731 15.6799 4.22809 16.6691 5.91686 17.5345C6.95554 18.0667 8.08661 17.353 8.23429 16.3111C7.88327 16.0746 7.56148 15.7974 7.27564 15.4853C6.43991 14.5736 5.77414 13.2388 5.77414 11.55C5.77414 8.7219 7.23439 6.81862 8.99164 6.3162C9.22429 6.2502 9.48664 6.4251 9.51469 6.666C9.63113 7.66342 10.1074 8.58411 10.8542 9.25543C11.601 9.92676 12.5671 10.3026 13.5712 10.3125C14.1273 10.3174 14.025 11.187 14.025 11.55C14.025 13.2388 13.36 14.5736 12.5235 15.4853C12.2248 15.8119 11.8965 16.0908 11.5632 16.3127C11.6952 17.3588 12.8155 18.0782 13.855 17.5758C15.6411 16.7145 16.8605 15.7253 17.5989 14.6182C18.3471 13.4945 18.5583 12.3106 18.4296 11.1581C18.1821 8.93887 16.6666 6.8211 15.51 5.28Z" fill="currentColor"/>
</svg>
