<svg width="380" height="69" viewBox="0 0 380 69" fill="none" xmlns="http://www.w3.org/2000/svg">
<g filter="url(#filter0_d_473_8620)">
<rect x="10" y="8" width="358" height="47" rx="23.5" fill="white"/>
<rect x="10.5" y="8.5" width="357" height="46" rx="23" stroke="#FF8246"/>
<path d="M39.4893 25.9121V38.1621H38.2451V31.7773H36.7275V37.5605H35.4971V26.1445H36.7275V30.7109H38.2451V25.9121H39.4893ZM34.1162 27.293V34.9355H29.3584V27.293H34.1162ZM30.5889 28.3184V33.8965H32.8994V28.3184H30.5889ZM45.0271 28.168C45.0271 29.7266 46.1072 31.1484 47.9666 31.7363L47.3514 32.748C45.9568 32.3037 44.9383 31.3809 44.3982 30.2188C43.865 31.5586 42.7918 32.6182 41.3221 33.1309L40.6521 32.0918C42.5662 31.4629 43.7146 29.877 43.7283 28.1816V27.8398H41.035V26.7871H47.6658V27.8398H45.0271V28.168ZM50.3729 25.9121V28.9473H52.1502V30.0137H50.3729V33.2676H49.074V25.9121H50.3729ZM46.4217 33.5684C48.951 33.5684 50.4822 34.4023 50.4822 35.8379C50.4822 37.2871 48.951 38.1484 46.4217 38.1348C43.865 38.1484 42.3064 37.2871 42.3064 35.8379C42.3064 34.4023 43.865 33.5684 46.4217 33.5684ZM46.4217 34.5938C44.6443 34.5938 43.5916 35.0449 43.6053 35.8379C43.5916 36.6582 44.6443 37.1094 46.4217 37.1094C48.1854 37.1094 49.2107 36.6582 49.2107 35.8379C49.2107 35.0449 48.1854 34.5938 46.4217 34.5938ZM58.1256 26.1172C60.8873 26.1172 62.5006 26.8555 62.5006 28.2227C62.5006 29.5898 60.8873 30.3418 58.1256 30.3418C55.3639 30.3418 53.7506 29.5898 53.7506 28.2227C53.7506 26.8555 55.3639 26.1172 58.1256 26.1172ZM58.1256 27.0742C56.1705 27.0742 55.0904 27.498 55.1041 28.2227C55.0904 28.9746 56.1705 29.3711 58.1256 29.3711C60.0807 29.3711 61.1607 28.9746 61.1607 28.2227C61.1607 27.498 60.0807 27.0742 58.1256 27.0742ZM63.7174 31.0938V32.1328H52.5475V31.0938H63.7174ZM62.3092 33.0762V35.9473H55.1725V37.041H62.651V38.0391H53.901V35.0039H61.024V34.0469H53.8873V33.0762H62.3092ZM73.7951 26.6777C73.7951 29.7949 71.6623 32.0098 68.1076 33.0078L67.5744 31.9961C70.3977 31.2031 72.1545 29.6719 72.4143 27.7441H68.217V26.6777H73.7951ZM77.6779 25.9258V32.8574H76.3791V30.0684H73.8498V28.9883H76.3791V25.9258H77.6779ZM77.6779 33.3633V37.998H69.6662V33.3633H77.6779ZM70.9377 34.4023V36.959H76.3928V34.4023H70.9377ZM83.0107 28.2227C83.0107 29.6035 83.8584 30.9844 85.4443 31.5996L84.7471 32.5977C83.626 32.1465 82.833 31.2988 82.3955 30.2734C81.9375 31.415 81.1035 32.3994 79.9209 32.9121L79.21 31.9141C80.8643 31.1895 81.7529 29.6035 81.7529 28.2227V26.6504H83.0107V28.2227ZM89.71 25.9258V33.3223H88.4795V30.123H87.0439V33.2539H85.8408V26.1309H87.0439V29.043H88.4795V25.9258H89.71ZM89.71 33.9648V38.1621H88.4248V35.0176H81.3838V33.9648H89.71ZM97.1209 27.9355V28.9883H91.0369V27.9355H93.4432V26.2676H94.7283V27.9355H97.1209ZM94.0857 29.7266C95.6443 29.7266 96.7381 30.8887 96.7518 32.543C96.7381 34.2109 95.6443 35.3867 94.0857 35.3867C92.5545 35.3867 91.4197 34.2109 91.4334 32.543C91.4197 30.8887 92.5545 29.7266 94.0857 29.7266ZM94.0857 30.8066C93.1971 30.8066 92.5818 31.5312 92.5818 32.543C92.5818 33.582 93.1971 34.2793 94.0857 34.2793C94.9607 34.2793 95.6033 33.582 95.6033 32.543C95.6033 31.5312 94.9607 30.8066 94.0857 30.8066ZM101.551 25.9121V38.1621H100.32V32.0781H98.9119V37.5879H97.6814V26.1855H98.9119V31.0117H100.32V25.9121H101.551ZM114.075 35.5645V36.6445H102.864V35.5645H107.799V33.0488H104.149V26.7461H105.448V28.8516H111.463V26.7461H112.749V33.0488H109.085V35.5645H114.075ZM105.448 31.9961H111.463V29.9043H105.448V31.9961ZM118.396 29.2617C118.396 31.2168 119.216 33.3086 120.857 34.3066L120.132 35.3047C118.984 34.6143 118.204 33.3906 117.794 31.9688C117.336 33.5273 116.496 34.8535 115.306 35.5781L114.499 34.6074C116.236 33.5684 117.138 31.4082 117.138 29.3164V27.0332H118.396V29.2617ZM125.204 25.9121V38.1621H123.96V25.9121H125.204ZM122.662 26.1445V37.5605H121.431V31.2988H119.531V30.2188H121.431V26.1445H122.662ZM137.674 35.5508V36.6309H126.463V35.5508H129.143V32.3516C128.138 31.7979 127.529 30.916 127.529 29.8223C127.529 27.8945 129.416 26.623 132.041 26.623C134.68 26.623 136.567 27.8945 136.567 29.8223C136.567 30.9023 135.979 31.7705 134.994 32.3242V35.5508H137.674ZM132.041 27.6621C130.113 27.6621 128.787 28.4961 128.787 29.8223C128.787 31.1348 130.113 31.9961 132.041 31.9961C133.955 31.9961 135.309 31.1348 135.309 29.8223C135.309 28.4961 133.955 27.6621 132.041 27.6621ZM130.428 35.5508H133.682V32.8164C133.183 32.9463 132.629 33.0078 132.041 33.0078C131.467 33.0078 130.92 32.9463 130.428 32.8301V35.5508ZM139.657 37.0957C139.124 37.0957 138.673 36.6582 138.687 36.125C138.673 35.5918 139.124 35.1543 139.657 35.1543C140.177 35.1543 140.628 35.5918 140.628 36.125C140.628 36.6582 140.177 37.0957 139.657 37.0957Z" fill="#888888"/>
<path d="M339.708 37.0417C343.206 37.0417 346.042 34.2061 346.042 30.7083C346.042 27.2105 343.206 24.375 339.708 24.375C336.211 24.375 333.375 27.2105 333.375 30.7083C333.375 34.2061 336.211 37.0417 339.708 37.0417Z" stroke="#FF8246" stroke-width="2" stroke-linecap="round" stroke-linejoin="round"/>
<path d="M347.625 38.6249L344.181 35.1812" stroke="#FF8246" stroke-width="2" stroke-linecap="round" stroke-linejoin="round"/>
</g>
<defs>
<filter id="filter0_d_473_8620" x="0.799926" y="0.844387" width="378.445" height="67.4446" filterUnits="userSpaceOnUse" color-interpolation-filters="sRGB">
<feFlood flood-opacity="0" result="BackgroundImageFix"/>
<feColorMatrix in="SourceAlpha" type="matrix" values="0 0 0 0 0 0 0 0 0 0 0 0 0 0 0 0 0 0 127 0" result="hardAlpha"/>
<feOffset dx="1.02223" dy="3.06669"/>
<feGaussianBlur stdDeviation="5.11115"/>
<feComposite in2="hardAlpha" operator="out"/>
<feColorMatrix type="matrix" values="0 0 0 0 0.423016 0 0 0 0 0.193675 0 0 0 0 0.193675 0 0 0 0.15 0"/>
<feBlend mode="normal" in2="BackgroundImageFix" result="effect1_dropShadow_473_8620"/>
<feBlend mode="normal" in="SourceGraphic" in2="effect1_dropShadow_473_8620" result="shape"/>
</filter>
</defs>
</svg>
