<svg width="24" height="25" viewBox="0 0 24 25" fill="none" xmlns="http://www.w3.org/2000/svg">
<path d="M18 8.08046C19.6569 8.08046 21 6.73731 21 5.08046C21 3.42361 19.6569 2.08046 18 2.08046C16.3431 2.08046 15 3.42361 15 5.08046C15 6.73731 16.3431 8.08046 18 8.08046Z" stroke="#888888" stroke-width="2" stroke-linecap="round" stroke-linejoin="round"/>
<path d="M6 15.0805C7.65685 15.0805 9 13.7373 9 12.0805C9 10.4236 7.65685 9.08046 6 9.08046C4.34315 9.08046 3 10.4236 3 12.0805C3 13.7373 4.34315 15.0805 6 15.0805Z" stroke="#888888" stroke-width="2" stroke-linecap="round" stroke-linejoin="round"/>
<path d="M18 22.0805C19.6569 22.0805 21 20.7373 21 19.0805C21 17.4236 19.6569 16.0805 18 16.0805C16.3431 16.0805 15 17.4236 15 19.0805C15 20.7373 16.3431 22.0805 18 22.0805Z" stroke="#888888" stroke-width="2" stroke-linecap="round" stroke-linejoin="round"/>
<path d="M8.58984 13.5905L15.4198 17.5705" stroke="#888888" stroke-width="2" stroke-linecap="round" stroke-linejoin="round"/>
<path d="M15.4098 6.59046L8.58984 10.5705" stroke="#888888" stroke-width="2" stroke-linecap="round" stroke-linejoin="round"/>
</svg>
