<svg width="42" height="51" viewBox="0 0 42 51" fill="none" xmlns="http://www.w3.org/2000/svg">
<path d="M25.6038 27.8019V17.4425C25.6038 13.9894 27.9059 13.9894 27.9059 9.38525C27.9059 7.5536 27.1783 5.79697 25.8831 4.5018C24.588 3.20662 22.8313 2.479 20.9997 2.479C19.168 2.479 17.4114 3.20662 16.1162 4.5018C14.821 5.79697 14.0934 7.5536 14.0934 9.38525C14.0934 13.9894 16.3955 13.9894 16.3955 17.4425V27.8019M4.88509 48.5207H37.1143M39.4163 33.5571C39.4163 32.0308 38.81 30.5669 37.7307 29.4876C36.6514 28.4083 35.1875 27.8019 33.6611 27.8019H8.33822C6.81184 27.8019 5.34798 28.4083 4.26867 29.4876C3.18936 30.5669 2.58301 32.0308 2.58301 33.5571V37.0103C2.58301 37.6208 2.82555 38.2064 3.25727 38.6381C3.689 39.0698 4.27454 39.3123 4.88509 39.3123H37.1143C37.7248 39.3123 38.3104 39.0698 38.7421 38.6381C39.1738 38.2064 39.4163 37.6208 39.4163 37.0103V33.5571Z" stroke="#FF8246" stroke-width="4" stroke-linecap="round" stroke-linejoin="round"/>
</svg>
