<svg width="24" height="24" viewBox="0 0 24 24" fill="none" xmlns="http://www.w3.org/2000/svg">
<g clip-path="url(#clip0_1621_4458)">
<mask id="mask0_1621_4458" style="mask-type:luminance" maskUnits="userSpaceOnUse" x="1" y="2" width="21" height="19">
<path fill-rule="evenodd" clip-rule="evenodd" d="M1.87744 2.80664H21.8774V20.9726H1.87744V2.80664Z" fill="white"/>
</mask>
<g mask="url(#mask0_1621_4458)">
<path fill-rule="evenodd" clip-rule="evenodd" d="M3.37744 14.7856V16.8306C3.37744 17.5366 3.65144 18.1996 4.15044 18.6986C4.64944 19.1976 5.31344 19.4726 6.01844 19.4726H17.7344C19.1904 19.4726 20.3764 18.2886 20.3774 16.8326V14.7846C19.0914 14.4516 18.1384 13.2806 18.1374 11.8916C18.1374 10.5026 19.0904 9.33164 20.3764 8.99764L20.3774 6.95264C20.3784 5.49464 19.1954 4.30764 17.7384 4.30664H6.02144C4.56444 4.30664 3.37844 5.49164 3.37744 6.94864V9.06564C3.86344 9.18164 4.31444 9.42064 4.68944 9.77064C5.25844 10.3016 5.58644 11.0216 5.61444 11.7996C5.61744 13.2656 4.66444 14.4496 3.37744 14.7856ZM17.7344 20.9726H6.01944C4.91244 20.9726 3.87244 20.5426 3.08944 19.7596C2.30744 18.9766 1.87744 17.9366 1.87744 16.8306V14.1306C1.87744 13.7166 2.21344 13.3806 2.62744 13.3806C3.45144 13.3796 4.11744 12.7116 4.11644 11.8916C4.10244 11.4736 3.94244 11.1256 3.66644 10.8676C3.39144 10.6096 3.03544 10.4686 2.65344 10.4896C2.44644 10.4916 2.25244 10.4206 2.10644 10.2796C1.96044 10.1386 1.87744 9.94264 1.87744 9.73964V6.94964C1.87844 4.66464 3.73744 2.80664 6.02144 2.80664H17.7334C20.0234 2.80764 21.8794 4.66964 21.8774 6.95364V9.65264C21.8774 10.0666 21.5414 10.4026 21.1274 10.4026C20.3064 10.4026 19.6374 11.0706 19.6374 11.8906C19.6384 12.7126 20.3064 13.3806 21.1274 13.3806C21.5414 13.3806 21.8774 13.7166 21.8774 14.1306V16.8306C21.8764 19.1146 20.0174 20.9726 17.7344 20.9726Z" fill="#FF8246"/>
</g>
<path fill-rule="evenodd" clip-rule="evenodd" d="M9.98127 11.1877L10.4903 11.6837C10.7663 11.9547 10.8913 12.3407 10.8253 12.7177L10.7053 13.4157L11.3343 13.0847C11.6733 12.9037 12.0803 12.9047 12.4223 13.0867L13.0473 13.4147L12.9273 12.7157C12.8643 12.3327 12.9903 11.9497 13.2633 11.6837L13.7723 11.1877L13.0673 11.0857C12.6893 11.0307 12.3613 10.7927 12.1923 10.4477L11.8773 9.81067L11.5623 10.4487C11.3933 10.7927 11.0653 11.0307 10.6853 11.0857L9.98127 11.1877ZM13.4953 15.1937C13.3093 15.1937 13.1233 15.1487 12.9513 15.0577L11.8773 14.4947L10.8023 15.0587C10.4063 15.2657 9.93527 15.2327 9.57527 14.9707C9.21427 14.7077 9.03727 14.2717 9.11227 13.8317L9.31727 12.6357L8.44827 11.7887C8.12927 11.4777 8.01527 11.0207 8.15227 10.5967C8.29027 10.1717 8.65027 9.86667 9.09127 9.80267L10.2953 9.62667L10.8323 8.53767C11.0293 8.13767 11.4293 7.88867 11.8773 7.88867C12.3233 7.88867 12.7243 8.13767 12.9213 8.53867L13.4593 9.62667L14.6613 9.80267C15.1033 9.86667 15.4643 10.1717 15.6013 10.5967C15.7383 11.0207 15.6253 11.4777 15.3053 11.7897L14.4353 12.6367L14.6413 13.8317C14.7163 14.2727 14.5383 14.7097 14.1763 14.9717C13.9723 15.1187 13.7343 15.1937 13.4953 15.1937Z" fill="#FF8246"/>
</g>
<defs>
<clipPath id="clip0_1621_4458">
<rect width="24" height="24" fill="white"/>
</clipPath>
</defs>
</svg>
