<svg width="50" height="45" viewBox="0 0 50 45" fill="none" xmlns="http://www.w3.org/2000/svg">
<path d="M6.0415 6.25004H43.9582C45.4478 6.25004 46.6665 5.03129 46.6665 3.54171C46.6665 2.05212 45.4478 0.833374 43.9582 0.833374H6.0415C4.55192 0.833374 3.33317 2.05212 3.33317 3.54171C3.33317 5.03129 4.55192 6.25004 6.0415 6.25004ZM47.0998 11.125C46.8561 9.87921 45.7457 8.95837 44.4457 8.95837H5.554C4.254 8.95837 3.14358 9.87921 2.89983 11.125L0.1915 24.6667C-0.1335 26.3459 1.13942 27.9167 2.84567 27.9167H3.33317V41.4584C3.33317 42.948 4.55192 44.1667 6.0415 44.1667H27.7082C29.1977 44.1667 30.4165 42.948 30.4165 41.4584V27.9167H41.2498V41.4584C41.2498 42.948 42.4686 44.1667 43.9582 44.1667C45.4478 44.1667 46.6665 42.948 46.6665 41.4584V27.9167H47.154C48.8603 27.9167 50.1332 26.3459 49.8082 24.6667L47.0998 11.125ZM24.9998 38.75H8.74983V27.9167H24.9998V38.75Z" fill="#FF8246"/>
</svg>
