<svg width="90" height="56" viewBox="0 0 90 56" fill="none" xmlns="http://www.w3.org/2000/svg">
<g filter="url(#filter0_d_473_7567)">
<rect x="10.9004" y="8" width="65.9" height="33" rx="16.5" fill="white" shape-rendering="crispEdges"/>
<path d="M24.9256 31.925C24.6918 31.925 24.496 31.8458 24.3382 31.6874C24.1803 31.529 24.1011 31.3332 24.1006 31.1C24.1 30.8668 24.1792 30.671 24.3382 30.5126C24.4971 30.3542 24.6929 30.275 24.9256 30.275H36.4756C36.7093 30.275 36.9054 30.3542 37.0638 30.5126C37.2222 30.671 37.3011 30.8668 37.3006 31.1C37.3 31.3332 37.2208 31.5292 37.063 31.6882C36.9051 31.8471 36.7093 31.9261 36.4756 31.925H24.9256ZM27.4006 28.625C26.4931 28.625 25.7162 28.3018 25.07 27.6556C24.4237 27.0093 24.1006 26.2325 24.1006 25.325V18.725C24.1006 18.2712 24.2623 17.8829 24.5857 17.5601C24.9091 17.2372 25.2974 17.0755 25.7506 17.075H37.3006C37.7543 17.075 38.1429 17.2367 38.4663 17.5601C38.7897 17.8835 38.9511 18.2718 38.9506 18.725V21.2C38.9506 21.6537 38.7892 22.0423 38.4663 22.3657C38.1435 22.6891 37.7549 22.8505 37.3006 22.85H35.6506V25.325C35.6506 26.2325 35.3275 27.0093 34.6812 27.6556C34.035 28.3018 33.2581 28.625 32.3506 28.625H27.4006ZM35.6506 21.2H37.3006V18.725H35.6506V21.2Z" fill="#FFA275"/>
<path d="M50.21 20.4229C50.1973 23.6855 49.0928 26.6689 45.0303 28.6621L44.4717 27.9004C46.5981 26.8721 47.874 25.5645 48.5596 24.041L44.6875 24.4092L44.5225 23.5332L48.8643 23.2412C49.061 22.6064 49.1753 21.9399 49.2197 21.248H45.0938V20.4229H50.21ZM53.0918 19.2422V23.8379H54.9199V24.6758H53.0918V30.5283H52.1016V19.2422H53.0918ZM65.3047 19.2422V30.5283H64.3398V19.2422H65.3047ZM63.0957 19.5215V29.9316H62.1436V24.4346H60.5693V23.5332H62.1436V19.5215H63.0957ZM60.8994 20.6895V21.5146H59.9473V26.7324C60.3726 26.707 60.7788 26.6689 61.1533 26.6182L61.2168 27.3545C59.4395 27.6846 57.0654 27.7354 55.5928 27.7354L55.4658 26.8848L56.6592 26.8721V21.5146H55.707V20.6895H60.8994ZM57.5732 26.8594C58.043 26.8467 58.5381 26.8276 59.0205 26.7959V21.5146H57.5732V26.8594Z" fill="#888888"/>
</g>
<defs>
<filter id="filter0_d_473_7567" x="0.780309" y="0.128825" width="88.3895" height="55.4891" filterUnits="userSpaceOnUse" color-interpolation-filters="sRGB">
<feFlood flood-opacity="0" result="BackgroundImageFix"/>
<feColorMatrix in="SourceAlpha" type="matrix" values="0 0 0 0 0 0 0 0 0 0 0 0 0 0 0 0 0 0 127 0" result="hardAlpha"/>
<feOffset dx="1.12445" dy="3.37336"/>
<feGaussianBlur stdDeviation="5.62227"/>
<feComposite in2="hardAlpha" operator="out"/>
<feColorMatrix type="matrix" values="0 0 0 0 0.423016 0 0 0 0 0.193675 0 0 0 0 0.193675 0 0 0 0.15 0"/>
<feBlend mode="normal" in2="BackgroundImageFix" result="effect1_dropShadow_473_7567"/>
<feBlend mode="normal" in="SourceGraphic" in2="effect1_dropShadow_473_7567" result="shape"/>
</filter>
</defs>
</svg>
