<svg width="66" height="33" viewBox="0 0 66 33" fill="none" xmlns="http://www.w3.org/2000/svg">
<rect width="65.9" height="33" rx="16.5" fill="#FFA275"/>
<path d="M14.0247 23.9252C13.791 23.9252 13.5952 23.846 13.4373 23.6876C13.2795 23.5292 13.2003 23.3334 13.1997 23.1002C13.1992 22.867 13.2784 22.6712 13.4373 22.5128C13.5963 22.3544 13.7921 22.2752 14.0247 22.2752H25.5747C25.8085 22.2752 26.0045 22.3544 26.1629 22.5128C26.3213 22.6712 26.4003 22.867 26.3997 23.1002C26.3992 23.3334 26.32 23.5295 26.1621 23.6884C26.0043 23.8474 25.8085 23.9263 25.5747 23.9252H14.0247ZM16.4997 20.6252C15.5922 20.6252 14.8153 20.3021 14.1691 19.6558C13.5228 19.0096 13.1997 18.2327 13.1997 17.3252V10.7252C13.1997 10.2714 13.3614 9.88315 13.6848 9.5603C14.0082 9.23745 14.3965 9.07575 14.8497 9.0752H26.3997C26.8535 9.0752 27.242 9.2369 27.5654 9.5603C27.8888 9.8837 28.0503 10.272 28.0497 10.7252V13.2002C28.0497 13.6539 27.8883 14.0425 27.5654 14.3659C27.2426 14.6893 26.854 14.8507 26.3997 14.8502H24.7497V17.3252C24.7497 18.2327 24.4266 19.0096 23.7803 19.6558C23.1341 20.3021 22.3572 20.6252 21.4497 20.6252H16.4997ZM24.7497 13.2002H26.3997V10.7252H24.7497V13.2002Z" fill="white"/>
<path d="M39.3096 12.4229C39.2969 15.6855 38.1924 18.6689 34.1299 20.6621L33.5713 19.9004C35.6978 18.8721 36.9736 17.5645 37.6592 16.041L33.7871 16.4092L33.6221 15.5332L37.9639 15.2412C38.1606 14.6064 38.2749 13.9399 38.3193 13.248H34.1934V12.4229H39.3096ZM42.1914 11.2422V15.8379H44.0195V16.6758H42.1914V22.5283H41.2012V11.2422H42.1914ZM54.4043 11.2422V22.5283H53.4395V11.2422H54.4043ZM52.1953 11.5215V21.9316H51.2432V16.4346H49.6689V15.5332H51.2432V11.5215H52.1953ZM49.999 12.6895V13.5146H49.0469V18.7324C49.4722 18.707 49.8784 18.6689 50.2529 18.6182L50.3164 19.3545C48.5391 19.6846 46.165 19.7354 44.6924 19.7354L44.5654 18.8848L45.7588 18.8721V13.5146H44.8066V12.6895H49.999ZM46.6729 18.8594C47.1426 18.8467 47.6377 18.8276 48.1201 18.7959V13.5146H46.6729V18.8594Z" fill="white"/>
</svg>
