<svg width="43" height="22" viewBox="0 0 43 22" fill="none" xmlns="http://www.w3.org/2000/svg">
<rect width="42.5953" height="21.2272" rx="10.6136" fill="white"/>
<path d="M9.02092 15.3896C8.87056 15.3896 8.74461 15.3387 8.64307 15.2368C8.54154 15.1349 8.49059 15.009 8.49024 14.8589C8.48988 14.7089 8.54083 14.583 8.64307 14.4811C8.74532 14.3792 8.87126 14.3283 9.02092 14.3283H16.4504C16.6008 14.3283 16.7269 14.3792 16.8288 14.4811C16.9307 14.583 16.9815 14.7089 16.9811 14.8589C16.9807 15.009 16.9298 15.1351 16.8283 15.2373C16.7267 15.3396 16.6008 15.3903 16.4504 15.3896H9.02092ZM10.613 13.2669C10.0292 13.2669 9.52948 13.0591 9.11378 12.6434C8.69809 12.2277 8.49024 11.7279 8.49024 11.1442V6.89876C8.49024 6.60689 8.59425 6.35711 8.80228 6.14944C9.0103 5.94177 9.26007 5.83776 9.55159 5.8374H16.9811C17.273 5.8374 17.5229 5.94142 17.7309 6.14944C17.939 6.35747 18.0428 6.60724 18.0425 6.89876V8.4908C18.0425 8.78267 17.9386 9.03262 17.7309 9.24065C17.5233 9.44867 17.2733 9.55251 16.9811 9.55216H15.9197V11.1442C15.9197 11.7279 15.7119 12.2277 15.2962 12.6434C14.8805 13.0591 14.3808 13.2669 13.797 13.2669H10.613ZM15.9197 8.4908H16.9811V6.89876H15.9197V8.4908Z" fill="#FFA275"/>
<path d="M25.2862 7.27467C25.278 9.37339 24.5675 11.2925 21.9543 12.5746L21.595 12.0846C22.9629 11.4231 23.7836 10.582 24.2245 9.60205L21.7338 9.83887L21.6277 9.2754L24.4205 9.08758C24.5471 8.67926 24.6206 8.25054 24.6492 7.80548H21.9952V7.27467H25.2862ZM27.1399 6.51522V9.47139H28.3158V10.0104H27.1399V13.775H26.5029V6.51522H27.1399ZM34.9958 6.51522V13.775H34.3752V6.51522H34.9958ZM33.5749 6.69487V13.3912H32.9624V9.8552H31.9498V9.2754H32.9624V6.69487H33.5749ZM32.1621 7.44616V7.97697H31.5496V11.3333C31.8232 11.317 32.0845 11.2925 32.3254 11.2598L32.3663 11.7334C31.223 11.9458 29.6959 11.9784 28.7486 11.9784L28.667 11.4313L29.4346 11.4231V7.97697H28.8221V7.44616H32.1621ZM30.0226 11.415C30.3247 11.4068 30.6432 11.3945 30.9535 11.3741V7.97697H30.0226V11.415Z" fill="#888888"/>
</svg>
