<svg width="90" height="56" viewBox="0 0 90 56" fill="none" xmlns="http://www.w3.org/2000/svg">
<g filter="url(#filter0_d_1165_6966)">
<rect x="11" y="8" width="65.9" height="33" rx="16.5" fill="#FFA275" shape-rendering="crispEdges"/>
<path d="M25.0247 31.9252C24.791 31.9252 24.5952 31.846 24.4373 31.6876C24.2795 31.5292 24.2003 31.3334 24.1997 31.1002C24.1992 30.867 24.2784 30.6712 24.4373 30.5128C24.5963 30.3544 24.7921 30.2752 25.0247 30.2752H36.5747C36.8085 30.2752 37.0045 30.3544 37.1629 30.5128C37.3213 30.6712 37.4003 30.867 37.3997 31.1002C37.3992 31.3334 37.32 31.5295 37.1621 31.6884C37.0043 31.8474 36.8085 31.9263 36.5747 31.9252H25.0247ZM27.4997 28.6252C26.5922 28.6252 25.8153 28.3021 25.1691 27.6558C24.5228 27.0096 24.1997 26.2327 24.1997 25.3252V18.7252C24.1997 18.2714 24.3614 17.8831 24.6848 17.5603C25.0082 17.2374 25.3965 17.0757 25.8497 17.0752H37.3997C37.8535 17.0752 38.242 17.2369 38.5654 17.5603C38.8888 17.8837 39.0503 18.272 39.0497 18.7252V21.2002C39.0497 21.6539 38.8883 22.0425 38.5654 22.3659C38.2426 22.6893 37.854 22.8507 37.3997 22.8502H35.7497V25.3252C35.7497 26.2327 35.4266 27.0096 34.7803 27.6558C34.1341 28.3021 33.3572 28.6252 32.4497 28.6252H27.4997ZM35.7497 21.2002H37.3997V18.7252H35.7497V21.2002Z" fill="white"/>
<path d="M50.3096 20.4229C50.2969 23.6855 49.1924 26.6689 45.1299 28.6621L44.5713 27.9004C46.6978 26.8721 47.9736 25.5645 48.6592 24.041L44.7871 24.4092L44.6221 23.5332L48.9639 23.2412C49.1606 22.6064 49.2749 21.9399 49.3193 21.248H45.1934V20.4229H50.3096ZM53.1914 19.2422V23.8379H55.0195V24.6758H53.1914V30.5283H52.2012V19.2422H53.1914ZM65.4043 19.2422V30.5283H64.4395V19.2422H65.4043ZM63.1953 19.5215V29.9316H62.2432V24.4346H60.6689V23.5332H62.2432V19.5215H63.1953ZM60.999 20.6895V21.5146H60.0469V26.7324C60.4722 26.707 60.8784 26.6689 61.2529 26.6182L61.3164 27.3545C59.5391 27.6846 57.165 27.7354 55.6924 27.7354L55.5654 26.8848L56.7588 26.8721V21.5146H55.8066V20.6895H60.999ZM57.6729 26.8594C58.1426 26.8467 58.6377 26.8276 59.1201 26.7959V21.5146H57.6729V26.8594Z" fill="white"/>
</g>
<defs>
<filter id="filter0_d_1165_6966" x="0.879918" y="0.128825" width="88.3895" height="55.4891" filterUnits="userSpaceOnUse" color-interpolation-filters="sRGB">
<feFlood flood-opacity="0" result="BackgroundImageFix"/>
<feColorMatrix in="SourceAlpha" type="matrix" values="0 0 0 0 0 0 0 0 0 0 0 0 0 0 0 0 0 0 127 0" result="hardAlpha"/>
<feOffset dx="1.12445" dy="3.37336"/>
<feGaussianBlur stdDeviation="5.62227"/>
<feComposite in2="hardAlpha" operator="out"/>
<feColorMatrix type="matrix" values="0 0 0 0 0.423016 0 0 0 0 0.193675 0 0 0 0 0.193675 0 0 0 0.15 0"/>
<feBlend mode="normal" in2="BackgroundImageFix" result="effect1_dropShadow_1165_6966"/>
<feBlend mode="normal" in="SourceGraphic" in2="effect1_dropShadow_1165_6966" result="shape"/>
</filter>
</defs>
</svg>
