<svg width="89" height="56" viewBox="0 0 89 56" fill="none" xmlns="http://www.w3.org/2000/svg">
<g filter="url(#filter0_d_473_7569)">
<rect x="10.7002" y="8" width="65.9" height="33" rx="16.5" fill="white" shape-rendering="crispEdges"/>
<path d="M26.6432 30.4746C28.0186 30.4746 28.9386 30.9887 29.3445 31.2786C29.4937 31.3614 29.9166 31.6099 30.0075 31.6181V19.0889C29.469 18.0862 27.886 17.2744 26.2455 17.2744C24.1735 17.2744 22.417 18.4677 22.0273 19.2714V30.9725C22.0273 31.5194 22.3505 31.7266 22.7401 31.7266C23.0548 31.7266 23.262 31.6188 23.4611 31.453C23.9501 31.0138 25.1016 30.4746 26.6432 30.4746ZM34.3666 30.475C35.9079 30.475 37.0517 31.0138 37.5488 31.453C37.739 31.6103 37.9465 31.7263 38.2612 31.7263C38.6509 31.7263 38.974 31.5194 38.974 30.9725V19.2707C38.5844 18.4666 36.836 17.2737 34.764 17.2737C33.1235 17.2737 31.5405 18.0855 31.002 19.0882V31.635C31.0933 31.6266 31.5158 31.3699 31.6731 31.2786C32.0709 30.9887 32.9909 30.475 34.3666 30.475Z" fill="#FFA275"/>
<path d="M53.2217 20.3848V21.6416C53.2217 23.0889 53.2217 24.5488 52.8154 26.6436L51.8379 26.5293C52.2441 24.5361 52.2441 23.0508 52.2441 21.6416V21.21H45.2363V20.3848H53.2217ZM54.4404 28.1035V28.9287H44.1572V28.1035H46.709V24.3838H47.6992V28.1035H49.5273V24.3838H50.5049V28.1035H54.4404ZM65.6758 24.6885V25.501H62.9336V26.9355H64.4062V30.5283H63.4033V27.7354H56.5352V26.9355H58.1221V25.501H55.3926V24.6885H65.6758ZM60.5342 19.5215C62.9844 19.5088 64.5205 20.3213 64.5205 21.667C64.5205 23.0254 62.9844 23.8379 60.5342 23.8252C58.084 23.8379 56.5352 23.0254 56.5352 21.667C56.5352 20.3213 58.084 19.5088 60.5342 19.5215ZM60.5342 20.3213C58.7061 20.3086 57.5508 20.8291 57.5635 21.667C57.5508 22.5303 58.7061 23.0508 60.5342 23.0508C62.3369 23.0508 63.5049 22.5303 63.5049 21.667C63.5049 20.8291 62.3369 20.3086 60.5342 20.3213ZM59.125 26.9355H61.9561V25.501H59.125V26.9355Z" fill="#888888"/>
</g>
<defs>
<filter id="filter0_d_473_7569" x="0.580113" y="0.128825" width="88.3895" height="55.4891" filterUnits="userSpaceOnUse" color-interpolation-filters="sRGB">
<feFlood flood-opacity="0" result="BackgroundImageFix"/>
<feColorMatrix in="SourceAlpha" type="matrix" values="0 0 0 0 0 0 0 0 0 0 0 0 0 0 0 0 0 0 127 0" result="hardAlpha"/>
<feOffset dx="1.12445" dy="3.37336"/>
<feGaussianBlur stdDeviation="5.62227"/>
<feComposite in2="hardAlpha" operator="out"/>
<feColorMatrix type="matrix" values="0 0 0 0 0.423016 0 0 0 0 0.193675 0 0 0 0 0.193675 0 0 0 0.15 0"/>
<feBlend mode="normal" in2="BackgroundImageFix" result="effect1_dropShadow_473_7569"/>
<feBlend mode="normal" in="SourceGraphic" in2="effect1_dropShadow_473_7569" result="shape"/>
</filter>
</defs>
</svg>
