<svg width="90" height="56" viewBox="0 0 90 56" fill="none" xmlns="http://www.w3.org/2000/svg">
<g filter="url(#filter0_d_1165_6964)">
<rect x="10.7998" y="8" width="65.9" height="33" rx="16.5" fill="#FFA275" shape-rendering="crispEdges"/>
<path d="M26.7428 30.4749C28.1182 30.4749 29.0382 30.989 29.4441 31.2789C29.5933 31.3616 30.0162 31.6102 30.1071 31.6183V19.0892C29.5686 18.0864 27.9856 17.2746 26.3451 17.2746C24.2731 17.2746 22.5166 18.4679 22.127 19.2716V30.9727C22.127 31.5197 22.4501 31.7269 22.8398 31.7269C23.1544 31.7269 23.3616 31.619 23.5607 31.4532C24.0497 31.0141 25.2013 30.4749 26.7428 30.4749ZM34.4662 30.4752C36.0075 30.4752 37.1513 31.0141 37.6484 31.4532C37.8386 31.6105 38.0462 31.7265 38.3608 31.7265C38.7505 31.7265 39.0736 31.5197 39.0736 30.9727V19.2709C38.684 18.4669 36.9356 17.2739 34.8637 17.2739C33.2231 17.2739 31.6401 18.0857 31.1017 19.0885V31.6353C31.1929 31.6268 31.6154 31.3701 31.7727 31.2789C32.1705 30.989 33.0905 30.4752 34.4662 30.4752Z" fill="white"/>
<path d="M53.3213 20.3848V21.6416C53.3213 23.0889 53.3213 24.5488 52.915 26.6436L51.9375 26.5293C52.3438 24.5361 52.3438 23.0508 52.3438 21.6416V21.21H45.3359V20.3848H53.3213ZM54.54 28.1035V28.9287H44.2568V28.1035H46.8086V24.3838H47.7988V28.1035H49.627V24.3838H50.6045V28.1035H54.54ZM65.7754 24.6885V25.501H63.0332V26.9355H64.5059V30.5283H63.5029V27.7354H56.6348V26.9355H58.2217V25.501H55.4922V24.6885H65.7754ZM60.6338 19.5215C63.084 19.5088 64.6201 20.3213 64.6201 21.667C64.6201 23.0254 63.084 23.8379 60.6338 23.8252C58.1836 23.8379 56.6348 23.0254 56.6348 21.667C56.6348 20.3213 58.1836 19.5088 60.6338 19.5215ZM60.6338 20.3213C58.8057 20.3086 57.6504 20.8291 57.6631 21.667C57.6504 22.5303 58.8057 23.0508 60.6338 23.0508C62.4365 23.0508 63.6045 22.5303 63.6045 21.667C63.6045 20.8291 62.4365 20.3086 60.6338 20.3213ZM59.2246 26.9355H62.0557V25.501H59.2246V26.9355Z" fill="white"/>
</g>
<defs>
<filter id="filter0_d_1165_6964" x="0.679723" y="0.128825" width="88.3895" height="55.4891" filterUnits="userSpaceOnUse" color-interpolation-filters="sRGB">
<feFlood flood-opacity="0" result="BackgroundImageFix"/>
<feColorMatrix in="SourceAlpha" type="matrix" values="0 0 0 0 0 0 0 0 0 0 0 0 0 0 0 0 0 0 127 0" result="hardAlpha"/>
<feOffset dx="1.12445" dy="3.37336"/>
<feGaussianBlur stdDeviation="5.62227"/>
<feComposite in2="hardAlpha" operator="out"/>
<feColorMatrix type="matrix" values="0 0 0 0 0.423016 0 0 0 0 0.193675 0 0 0 0 0.193675 0 0 0 0.15 0"/>
<feBlend mode="normal" in2="BackgroundImageFix" result="effect1_dropShadow_1165_6964"/>
<feBlend mode="normal" in="SourceGraphic" in2="effect1_dropShadow_1165_6964" result="shape"/>
</filter>
</defs>
</svg>
