<svg width="67" height="33" viewBox="0 0 67 33" fill="none" xmlns="http://www.w3.org/2000/svg">
<rect x="0.799805" width="65.9" height="33" rx="16.5" fill="white"/>
<path d="M16.7428 22.4749C18.1182 22.4749 19.0382 22.989 19.4441 23.2789C19.5933 23.3616 20.0162 23.6102 20.1071 23.6183V11.0892C19.5686 10.0864 17.9856 9.27463 16.3451 9.27463C14.2731 9.27463 12.5166 10.4679 12.127 11.2716V22.9727C12.127 23.5197 12.4501 23.7269 12.8398 23.7269C13.1544 23.7269 13.3616 23.619 13.5607 23.4532C14.0497 23.0141 15.2013 22.4749 16.7428 22.4749ZM24.4662 22.4752C26.0075 22.4752 27.1513 23.0141 27.6484 23.4532C27.8386 23.6105 28.0462 23.7265 28.3608 23.7265C28.7505 23.7265 29.0736 23.5197 29.0736 22.9727V11.2709C28.684 10.4669 26.9356 9.27393 24.8637 9.27393C23.2231 9.27393 21.6401 10.0857 21.1017 11.0885V23.6353C21.1929 23.6268 21.6154 23.3701 21.7727 23.2789C22.1705 22.989 23.0905 22.4752 24.4662 22.4752Z" fill="#FFA275"/>
<path d="M43.3213 12.3848V13.6416C43.3213 15.0889 43.3213 16.5488 42.915 18.6436L41.9375 18.5293C42.3438 16.5361 42.3438 15.0508 42.3438 13.6416V13.21H35.3359V12.3848H43.3213ZM44.54 20.1035V20.9287H34.2568V20.1035H36.8086V16.3838H37.7988V20.1035H39.627V16.3838H40.6045V20.1035H44.54ZM55.7754 16.6885V17.501H53.0332V18.9355H54.5059V22.5283H53.5029V19.7354H46.6348V18.9355H48.2217V17.501H45.4922V16.6885H55.7754ZM50.6338 11.5215C53.084 11.5088 54.6201 12.3213 54.6201 13.667C54.6201 15.0254 53.084 15.8379 50.6338 15.8252C48.1836 15.8379 46.6348 15.0254 46.6348 13.667C46.6348 12.3213 48.1836 11.5088 50.6338 11.5215ZM50.6338 12.3213C48.8057 12.3086 47.6504 12.8291 47.6631 13.667C47.6504 14.5303 48.8057 15.0508 50.6338 15.0508C52.4365 15.0508 53.6045 14.5303 53.6045 13.667C53.6045 12.8291 52.4365 12.3086 50.6338 12.3213ZM49.2246 18.9355H52.0557V17.501H49.2246V18.9355Z" fill="#888888"/>
</svg>
