<svg width="44" height="23" viewBox="0 0 44 23" fill="none" xmlns="http://www.w3.org/2000/svg">
<rect x="0.299805" y="0.775024" width="42.885" height="21.45" rx="10.725" fill="white"/>
<path d="M10.6615 15.3836C11.5555 15.3836 12.1535 15.7178 12.4173 15.9062C12.5143 15.96 12.7891 16.1215 12.8482 16.1268V7.98288C12.4982 7.33111 11.4693 6.80344 10.4029 6.80344C9.05615 6.80344 7.9144 7.57909 7.66113 8.10147V15.7072C7.66113 16.0627 7.87119 16.1974 8.12445 16.1974C8.32899 16.1974 8.46367 16.1273 8.59306 16.0195C8.9109 15.7341 9.65943 15.3836 10.6615 15.3836ZM15.6817 15.3838C16.6835 15.3838 17.4269 15.7341 17.7501 16.0195C17.8737 16.1218 18.0086 16.1972 18.2132 16.1972C18.4664 16.1972 18.6765 16.0627 18.6765 15.7072V8.10101C18.4232 7.5784 17.2867 6.80298 15.94 6.80298C14.8736 6.80298 13.8447 7.33065 13.4947 7.98242V16.1379C13.554 16.1323 13.8286 15.9655 13.9309 15.9062C14.1894 15.7178 14.7874 15.3838 15.6817 15.3838Z" fill="#FFA275"/>
<path d="M27.939 8.0751V8.89204C27.939 9.83276 27.939 10.7817 27.6749 12.1433L27.0395 12.069C27.3036 10.7735 27.3036 9.80801 27.3036 8.89204V8.61147H22.7485V8.0751H27.939ZM28.7312 13.0923V13.6287H22.0471V13.0923H23.7057V10.6745H24.3494V13.0923H25.5376V10.6745H26.173V13.0923H28.7312ZM36.0341 10.8725V11.4006H34.2517V12.3331H35.2089V14.6684H34.557V12.853H30.0927V12.3331H31.1242V11.4006H29.35V10.8725H36.0341ZM32.6921 7.51396C34.2847 7.50571 35.2832 8.03384 35.2832 8.90854C35.2832 9.7915 34.2847 10.3196 32.6921 10.3114C31.0995 10.3196 30.0927 9.7915 30.0927 8.90854C30.0927 8.03384 31.0995 7.50571 32.6921 7.51396ZM32.6921 8.03384C31.5038 8.02559 30.7529 8.36392 30.7611 8.90854C30.7529 9.46968 31.5038 9.80801 32.6921 9.80801C33.8639 9.80801 34.623 9.46968 34.623 8.90854C34.623 8.36392 33.8639 8.02559 32.6921 8.03384ZM31.7761 12.3331H33.6163V11.4006H31.7761V12.3331Z" fill="#888888"/>
</svg>
