<svg width="62" height="23" viewBox="0 0 62 23" fill="none" xmlns="http://www.w3.org/2000/svg">
<rect x="0.384766" y="0.775024" width="60.885" height="21.45" rx="10.725" fill="white"/>
<path d="M11.6879 8.90685C11.724 8.83474 11.7808 8.77513 11.8512 8.73573C11.9215 8.69634 12.002 8.67898 12.0823 8.68592C12.1626 8.69285 12.239 8.72376 12.3015 8.77463C12.3641 8.8255 12.4099 8.89399 12.433 8.9712L13.348 12.0218L14.1021 10.5156C14.1355 10.4488 14.1868 10.3926 14.2504 10.3534C14.3139 10.3141 14.3871 10.2933 14.4618 10.2933C14.5365 10.2933 14.6097 10.3141 14.6732 10.3534C14.7367 10.3926 14.7881 10.4488 14.8215 10.5156L15.5138 11.9021H17.946C18.3081 11.1556 18.4918 10.3351 18.4827 9.50536C18.4668 7.94412 17.2143 6.67371 15.6905 6.67371C14.4816 6.67371 13.6795 7.41624 13.2542 7.95568C12.8299 7.41549 12.0268 6.67371 10.818 6.67371C9.29418 6.67371 8.04161 7.94412 8.02578 9.50536C8.01927 10.0445 8.09496 10.5815 8.25025 11.0978H10.5925L11.6879 8.90685Z" fill="#FFA275"/>
<path d="M14.9049 12.4843L14.4602 11.5949L13.6134 13.2886C13.58 13.3554 13.5286 13.4116 13.4651 13.4508C13.4016 13.4901 13.3283 13.5109 13.2537 13.5109C13.2424 13.5109 13.2309 13.5104 13.219 13.5093C13.1385 13.5027 13.0619 13.4719 12.9991 13.4211C12.9363 13.3702 12.8903 13.3017 12.8671 13.2243L11.9521 10.1737L11.198 11.6799C11.1647 11.7463 11.1137 11.8023 11.0507 11.8415C10.9876 11.8807 10.9148 11.9017 10.8405 11.9021H8.5619C8.79651 12.3929 9.10879 12.8761 9.49875 13.3515C9.97057 13.9266 10.826 14.8461 12.8015 16.1872C12.9347 16.2785 13.0924 16.3273 13.2539 16.3273C13.4154 16.3273 13.5732 16.2785 13.7064 16.1872C15.6819 14.8461 16.5373 13.9266 17.0091 13.3515C17.179 13.1446 17.3384 12.9294 17.4867 12.7065H15.2646C15.1899 12.7065 15.1167 12.6857 15.0532 12.6465C14.9897 12.6072 14.9383 12.5511 14.9049 12.4843ZM18.4821 11.9021H17.9454C17.8117 12.1807 17.6584 12.4495 17.4867 12.7065H18.4821C18.5888 12.7065 18.6911 12.6641 18.7665 12.5887C18.8419 12.5133 18.8843 12.411 18.8843 12.3043C18.8843 12.1976 18.8419 12.0953 18.7665 12.0199C18.6911 11.9445 18.5888 11.9021 18.4821 11.9021ZM8.02523 11.0977C7.91857 11.0977 7.81627 11.1401 7.74084 11.2155C7.66542 11.291 7.62305 11.3933 7.62305 11.4999C7.62305 11.6066 7.66542 11.7089 7.74084 11.7843C7.81627 11.8597 7.91857 11.9021 8.02523 11.9021H8.5619C8.43751 11.6423 8.33314 11.3734 8.24971 11.0977H8.02523Z" fill="#FFA275"/>
<path d="M28.8409 11.0623V11.5987H25.8619V13.1005H25.21V11.5987H22.1238V11.0623H28.8409ZM28.0899 13.9587V14.5116H22.9902V12.3661H23.6421V13.9587H28.0899ZM25.4741 7.52222C27.0419 7.53047 28.0569 8.0916 28.0569 8.99932C28.0569 9.90703 27.0419 10.4599 25.4741 10.4599C23.9062 10.4599 22.883 9.90703 22.883 8.99932C22.883 8.0916 23.9062 7.53047 25.4741 7.52222ZM25.4741 8.05034C24.3353 8.05034 23.5679 8.41343 23.5761 8.99932C23.5679 9.5687 24.3353 9.93179 25.4741 9.93179C26.6128 9.93179 27.372 9.5687 27.372 8.99932C27.372 8.41343 26.6128 8.05034 25.4741 8.05034ZM36.1273 10.9633V11.4832H29.435V10.9633H32.4635V10.1051H30.285V7.679H35.2939V8.19888H30.9204V9.57695H35.3434V10.1051H33.0906V10.9633H36.1273ZM32.7771 12.0195C34.3532 12.0195 35.2939 12.4981 35.3021 13.3398C35.2939 14.1898 34.3532 14.6602 32.7771 14.6684C31.1927 14.6602 30.2437 14.1898 30.2437 13.3398C30.2437 12.4981 31.1927 12.0195 32.7771 12.0195ZM32.7771 12.5312C31.597 12.5312 30.8956 12.8365 30.9039 13.3398C30.8956 13.8515 31.597 14.1485 32.7771 14.1485C33.9406 14.1485 34.6502 13.8515 34.6502 13.3398C34.6502 12.8365 33.9406 12.5312 32.7771 12.5312ZM39.1393 7.74502L37.2084 14.8995H36.5647L38.4874 7.74502H39.1393ZM45.6418 7.34067V12.7622H44.9899V10.1463H43.3643V9.60171H44.9899V7.34067H45.6418ZM43.3973 7.90181C43.3891 9.78325 42.044 11.2191 39.9563 11.904L39.6757 11.3841C41.3673 10.8271 42.5432 9.775 42.6876 8.44644H40.047V7.90181H43.3973ZM45.8316 13.967V14.5116H40.9712V12.2093H41.6314V13.967H45.8316ZM52.5982 7.33242V9.24687H53.704V9.78325H52.5982V11.739H51.9546V7.33242H52.5982ZM50.6013 7.87705C50.6013 9.74199 49.281 11.1201 47.1437 11.7472L46.8714 11.2191C48.6414 10.7075 49.772 9.68835 49.9081 8.41343H47.1932V7.87705H50.6013ZM50.2794 11.8215C51.7565 11.8215 52.6808 12.3579 52.6808 13.2326C52.6808 14.1238 51.7565 14.6519 50.2794 14.6519C48.8189 14.6519 47.8699 14.1238 47.8781 13.2326C47.8699 12.3579 48.8189 11.8215 50.2794 11.8215ZM50.2794 12.3414C49.2067 12.3331 48.5135 12.6797 48.5218 13.2326C48.5135 13.7854 49.2067 14.132 50.2794 14.132C51.3605 14.132 52.0536 13.7854 52.0536 13.2326C52.0536 12.6797 51.3605 12.3331 50.2794 12.3414Z" fill="#888888"/>
</svg>
