<svg width="116" height="56" viewBox="0 0 116 56" fill="none" xmlns="http://www.w3.org/2000/svg">
<g filter="url(#filter0_d_1165_6920)">
<rect x="10.6992" y="8" width="92.9" height="33" rx="16.5" fill="white" shape-rendering="crispEdges"/>
<path d="M28.0898 20.5108C28.1452 20.3999 28.2327 20.3081 28.3409 20.2475C28.4491 20.1869 28.573 20.1602 28.6965 20.1709C28.8201 20.1816 28.9376 20.2291 29.0338 20.3074C29.13 20.3856 29.2004 20.491 29.236 20.6098L30.6437 25.303L31.8038 22.9858C31.8552 22.883 31.9342 22.7966 32.032 22.7362C32.1297 22.6758 32.2423 22.6438 32.3572 22.6438C32.4721 22.6438 32.5847 22.6758 32.6825 22.7362C32.7802 22.7966 32.8592 22.883 32.9106 22.9858L33.9756 25.1189H37.7175C38.2746 23.9704 38.5573 22.7081 38.5432 21.4316C38.5188 19.0297 36.5918 17.0752 34.2475 17.0752C32.3878 17.0752 31.1538 18.2176 30.4994 19.0475C29.8466 18.2164 28.6111 17.0752 26.7513 17.0752C24.4071 17.0752 22.48 19.0297 22.4557 21.4316C22.4457 22.261 22.5621 23.0871 22.801 23.8814H26.4045L28.0898 20.5108Z" fill="#FFA275"/>
<path d="M33.0398 26.0144L32.3557 24.6462L31.0528 27.2519C31.0014 27.3547 30.9224 27.4411 30.8247 27.5015C30.7269 27.5618 30.6143 27.5938 30.4994 27.5938C30.4821 27.5938 30.4644 27.593 30.446 27.5915C30.3222 27.5812 30.2043 27.5339 30.1078 27.4557C30.0112 27.3774 29.9404 27.2719 29.9046 27.1529L28.497 22.4597L27.3368 24.7769C27.2857 24.8791 27.2072 24.9652 27.1102 25.0255C27.0131 25.0859 26.9012 25.1182 26.7869 25.1188H23.2813C23.6422 25.8739 24.1227 26.6172 24.7226 27.3486C25.4485 28.2334 26.7645 29.648 29.8037 31.7112C30.0087 31.8517 30.2513 31.9268 30.4998 31.9268C30.7483 31.9268 30.9909 31.8517 31.1959 31.7112C34.2351 29.648 35.5511 28.2334 36.277 27.3486C36.5384 27.0304 36.7837 26.6992 37.0118 26.3563H33.5932C33.4783 26.3563 33.3657 26.3243 33.2679 26.264C33.1702 26.2036 33.0912 26.1172 33.0398 26.0144ZM38.5432 25.1188H37.7175C37.5118 25.5475 37.276 25.961 37.0118 26.3563H38.5432C38.7073 26.3563 38.8646 26.2911 38.9807 26.1751C39.0967 26.059 39.1619 25.9016 39.1619 25.7375C39.1619 25.5734 39.0967 25.4161 38.9807 25.3C38.8646 25.184 38.7073 25.1188 38.5432 25.1188ZM22.4557 23.8813C22.2916 23.8813 22.1342 23.9465 22.0181 24.0625C21.9021 24.1786 21.8369 24.3359 21.8369 24.5C21.8369 24.6641 21.9021 24.8215 22.0181 24.9376C22.1342 25.0536 22.2916 25.1188 22.4557 25.1188H23.2813C23.0899 24.7191 22.9294 24.3054 22.801 23.8813H22.4557Z" fill="#FFA275"/>
<path d="M54.4775 24.9805V25.8057H49.8945V28.1162H48.8916V25.8057H44.1436V24.9805H54.4775ZM53.3223 29.4365V30.2871H45.4766V26.9863H46.4795V29.4365H53.3223ZM49.2979 19.5342C51.71 19.5469 53.2715 20.4102 53.2715 21.8066C53.2715 23.2031 51.71 24.0537 49.2979 24.0537C46.8857 24.0537 45.3115 23.2031 45.3115 21.8066C45.3115 20.4102 46.8857 19.5469 49.2979 19.5342ZM49.2979 20.3467C47.5459 20.3467 46.3652 20.9053 46.3779 21.8066C46.3652 22.6826 47.5459 23.2412 49.2979 23.2412C51.0498 23.2412 52.2178 22.6826 52.2178 21.8066C52.2178 20.9053 51.0498 20.3467 49.2979 20.3467ZM65.6875 24.8281V25.6279H55.3916V24.8281H60.0508V23.5078H56.6992V19.7754H64.4053V20.5752H57.6768V22.6953H64.4814V23.5078H61.0156V24.8281H65.6875ZM60.5332 26.4531C62.958 26.4531 64.4053 27.1895 64.418 28.4844C64.4053 29.792 62.958 30.5156 60.5332 30.5283C58.0957 30.5156 56.6357 29.792 56.6357 28.4844C56.6357 27.1895 58.0957 26.4531 60.5332 26.4531ZM60.5332 27.2402C58.7178 27.2402 57.6387 27.71 57.6514 28.4844C57.6387 29.2715 58.7178 29.7285 60.5332 29.7285C62.3232 29.7285 63.415 29.2715 63.415 28.4844C63.415 27.71 62.3232 27.2402 60.5332 27.2402ZM70.3213 19.877L67.3506 30.8838H66.3604L69.3184 19.877H70.3213ZM80.3252 19.2549V27.5957H79.3223V23.5713H76.8213V22.7334H79.3223V19.2549H80.3252ZM76.8721 20.1182C76.8594 23.0127 74.79 25.2217 71.5781 26.2754L71.1465 25.4756C73.749 24.6187 75.5581 23 75.7803 20.9561H71.7178V20.1182H76.8721ZM80.6172 29.4492V30.2871H73.1396V26.7451H74.1553V29.4492H80.6172ZM91.0273 19.2422V22.1875H92.7285V23.0127H91.0273V26.0215H90.0371V19.2422H91.0273ZM87.9551 20.0801C87.9551 22.9492 85.9238 25.0693 82.6357 26.0342L82.2168 25.2217C84.9399 24.4346 86.6792 22.8667 86.8887 20.9053H82.7119V20.0801H87.9551ZM87.46 26.1484C89.7324 26.1484 91.1543 26.9736 91.1543 28.3193C91.1543 29.6904 89.7324 30.5029 87.46 30.5029C85.2129 30.5029 83.7529 29.6904 83.7656 28.3193C83.7529 26.9736 85.2129 26.1484 87.46 26.1484ZM87.46 26.9482C85.8096 26.9355 84.7432 27.4688 84.7559 28.3193C84.7432 29.1699 85.8096 29.7031 87.46 29.7031C89.123 29.7031 90.1895 29.1699 90.1895 28.3193C90.1895 27.4688 89.123 26.9355 87.46 26.9482Z" fill="#888888"/>
</g>
<defs>
<filter id="filter0_d_1165_6920" x="0.579137" y="0.128825" width="115.389" height="55.4891" filterUnits="userSpaceOnUse" color-interpolation-filters="sRGB">
<feFlood flood-opacity="0" result="BackgroundImageFix"/>
<feColorMatrix in="SourceAlpha" type="matrix" values="0 0 0 0 0 0 0 0 0 0 0 0 0 0 0 0 0 0 127 0" result="hardAlpha"/>
<feOffset dx="1.12445" dy="3.37336"/>
<feGaussianBlur stdDeviation="5.62227"/>
<feComposite in2="hardAlpha" operator="out"/>
<feColorMatrix type="matrix" values="0 0 0 0 0.423016 0 0 0 0 0.193675 0 0 0 0 0.193675 0 0 0 0.15 0"/>
<feBlend mode="normal" in2="BackgroundImageFix" result="effect1_dropShadow_1165_6920"/>
<feBlend mode="normal" in="SourceGraphic" in2="effect1_dropShadow_1165_6920" result="shape"/>
</filter>
</defs>
</svg>
