<svg width="94" height="33" viewBox="0 0 94 33" fill="none" xmlns="http://www.w3.org/2000/svg">
<rect x="0.699219" width="92.9" height="33" rx="16.5" fill="white"/>
<path d="M18.0898 12.5108C18.1452 12.3999 18.2327 12.3081 18.3409 12.2475C18.4491 12.1869 18.573 12.1602 18.6965 12.1709C18.8201 12.1816 18.9376 12.2291 19.0338 12.3074C19.13 12.3856 19.2004 12.491 19.236 12.6098L20.6437 17.303L21.8038 14.9858C21.8552 14.883 21.9342 14.7966 22.032 14.7362C22.1297 14.6758 22.2423 14.6438 22.3572 14.6438C22.4721 14.6438 22.5847 14.6758 22.6825 14.7362C22.7802 14.7966 22.8592 14.883 22.9106 14.9858L23.9756 17.1189H27.7175C28.2746 15.9704 28.5573 14.7081 28.5432 13.4316C28.5188 11.0297 26.5918 9.0752 24.2475 9.0752C22.3878 9.0752 21.1538 10.2176 20.4994 11.0475C19.8466 10.2164 18.6111 9.0752 16.7513 9.0752C14.4071 9.0752 12.48 11.0297 12.4557 13.4316C12.4457 14.261 12.5621 15.0871 12.801 15.8814H16.4045L18.0898 12.5108Z" fill="#FFA275"/>
<path d="M23.0398 18.0144L22.3557 16.6462L21.0528 19.2519C21.0014 19.3547 20.9224 19.4411 20.8247 19.5015C20.7269 19.5618 20.6143 19.5938 20.4994 19.5938C20.4821 19.5938 20.4644 19.593 20.446 19.5915C20.3222 19.5812 20.2043 19.5339 20.1078 19.4557C20.0112 19.3774 19.9404 19.2719 19.9046 19.1529L18.497 14.4597L17.3368 16.7769C17.2857 16.8791 17.2072 16.9652 17.1102 17.0255C17.0131 17.0859 16.9012 17.1182 16.7869 17.1188H13.2813C13.6422 17.8739 14.1227 18.6172 14.7226 19.3486C15.4485 20.2334 16.7645 21.648 19.8037 23.7112C20.0087 23.8517 20.2513 23.9268 20.4998 23.9268C20.7483 23.9268 20.9909 23.8517 21.1959 23.7112C24.2351 21.648 25.5511 20.2334 26.277 19.3486C26.5384 19.0304 26.7837 18.6992 27.0118 18.3563H23.5932C23.4783 18.3563 23.3657 18.3243 23.2679 18.264C23.1702 18.2036 23.0912 18.1172 23.0398 18.0144ZM28.5432 17.1188H27.7175C27.5118 17.5475 27.276 17.961 27.0118 18.3563H28.5432C28.7073 18.3563 28.8646 18.2911 28.9807 18.1751C29.0967 18.059 29.1619 17.9016 29.1619 17.7375C29.1619 17.5734 29.0967 17.4161 28.9807 17.3C28.8646 17.184 28.7073 17.1188 28.5432 17.1188ZM12.4557 15.8813C12.2916 15.8813 12.1342 15.9465 12.0181 16.0625C11.9021 16.1786 11.8369 16.3359 11.8369 16.5C11.8369 16.6641 11.9021 16.8215 12.0181 16.9376C12.1342 17.0536 12.2916 17.1188 12.4557 17.1188H13.2813C13.0899 16.7191 12.9294 16.3054 12.801 15.8813H12.4557Z" fill="#FFA275"/>
<path d="M44.4775 16.9805V17.8057H39.8945V20.1162H38.8916V17.8057H34.1436V16.9805H44.4775ZM43.3223 21.4365V22.2871H35.4766V18.9863H36.4795V21.4365H43.3223ZM39.2979 11.5342C41.71 11.5469 43.2715 12.4102 43.2715 13.8066C43.2715 15.2031 41.71 16.0537 39.2979 16.0537C36.8857 16.0537 35.3115 15.2031 35.3115 13.8066C35.3115 12.4102 36.8857 11.5469 39.2979 11.5342ZM39.2979 12.3467C37.5459 12.3467 36.3652 12.9053 36.3779 13.8066C36.3652 14.6826 37.5459 15.2412 39.2979 15.2412C41.0498 15.2412 42.2178 14.6826 42.2178 13.8066C42.2178 12.9053 41.0498 12.3467 39.2979 12.3467ZM55.6875 16.8281V17.6279H45.3916V16.8281H50.0508V15.5078H46.6992V11.7754H54.4053V12.5752H47.6768V14.6953H54.4814V15.5078H51.0156V16.8281H55.6875ZM50.5332 18.4531C52.958 18.4531 54.4053 19.1895 54.418 20.4844C54.4053 21.792 52.958 22.5156 50.5332 22.5283C48.0957 22.5156 46.6357 21.792 46.6357 20.4844C46.6357 19.1895 48.0957 18.4531 50.5332 18.4531ZM50.5332 19.2402C48.7178 19.2402 47.6387 19.71 47.6514 20.4844C47.6387 21.2715 48.7178 21.7285 50.5332 21.7285C52.3232 21.7285 53.415 21.2715 53.415 20.4844C53.415 19.71 52.3232 19.2402 50.5332 19.2402ZM60.3213 11.877L57.3506 22.8838H56.3604L59.3184 11.877H60.3213ZM70.3252 11.2549V19.5957H69.3223V15.5713H66.8213V14.7334H69.3223V11.2549H70.3252ZM66.8721 12.1182C66.8594 15.0127 64.79 17.2217 61.5781 18.2754L61.1465 17.4756C63.749 16.6187 65.5581 15 65.7803 12.9561H61.7178V12.1182H66.8721ZM70.6172 21.4492V22.2871H63.1396V18.7451H64.1553V21.4492H70.6172ZM81.0273 11.2422V14.1875H82.7285V15.0127H81.0273V18.0215H80.0371V11.2422H81.0273ZM77.9551 12.0801C77.9551 14.9492 75.9238 17.0693 72.6357 18.0342L72.2168 17.2217C74.9399 16.4346 76.6792 14.8667 76.8887 12.9053H72.7119V12.0801H77.9551ZM77.46 18.1484C79.7324 18.1484 81.1543 18.9736 81.1543 20.3193C81.1543 21.6904 79.7324 22.5029 77.46 22.5029C75.2129 22.5029 73.7529 21.6904 73.7656 20.3193C73.7529 18.9736 75.2129 18.1484 77.46 18.1484ZM77.46 18.9482C75.8096 18.9355 74.7432 19.4688 74.7559 20.3193C74.7432 21.1699 75.8096 21.7031 77.46 21.7031C79.123 21.7031 80.1895 21.1699 80.1895 20.3193C80.1895 19.4688 79.123 18.9355 77.46 18.9482Z" fill="#888888"/>
</svg>
