<svg width="77" height="33" viewBox="0 0 77 33" fill="none" xmlns="http://www.w3.org/2000/svg">
<rect width="76.9" height="33" rx="16.5" fill="#FFA275"/>
<path d="M12.9881 8.9232C13.0034 8.73702 13.0899 8.56391 13.2296 8.43987C13.3692 8.31582 13.5514 8.2504 13.7381 8.2572C13.9247 8.264 14.1016 8.3425 14.2319 8.47638C14.3622 8.61025 14.4359 8.7892 14.4376 8.976V12.6835C14.4376 12.8203 14.4919 12.9515 14.5886 13.0482C14.6853 13.1448 14.8165 13.1992 14.9532 13.1992C15.09 13.1992 15.2211 13.1448 15.3178 13.0482C15.4145 12.9515 15.4688 12.8203 15.4688 12.6835V8.86875C15.4688 8.70465 15.534 8.54727 15.6501 8.43123C15.7661 8.31519 15.9235 8.25 16.0876 8.25C16.2517 8.25 16.4091 8.31519 16.5251 8.43123C16.6412 8.54727 16.7063 8.70465 16.7063 8.86875V12.6835C16.7063 12.8203 16.7607 12.9515 16.8574 13.0482C16.9541 13.1448 17.0852 13.1992 17.222 13.1992C17.3587 13.1992 17.4899 13.1448 17.5866 13.0482C17.6833 12.9515 17.7376 12.8203 17.7376 12.6835V8.976C17.7393 8.7892 17.813 8.61025 17.9433 8.47638C18.0736 8.3425 18.2505 8.264 18.4371 8.2572C18.6238 8.2504 18.8059 8.31582 18.9456 8.43987C19.0853 8.56391 19.1718 8.73702 19.1871 8.9232C19.2226 9.4281 19.3876 11.8552 19.3876 13.2C19.3876 14.3137 18.8348 15.2988 17.9917 15.8953C17.8135 16.0215 17.7706 16.1551 17.7747 16.2228C17.8762 17.7721 18.1501 22.0126 18.1501 22.685C18.1501 23.232 17.9328 23.7566 17.546 24.1434C17.1592 24.5302 16.6346 24.7475 16.0876 24.7475C15.5406 24.7475 15.016 24.5302 14.6292 24.1434C14.2424 23.7566 14.0251 23.232 14.0251 22.685C14.0251 22.0118 14.299 17.7721 14.4005 16.2228C14.4046 16.1551 14.3617 16.0215 14.1835 15.8953C13.7521 15.5905 13.4002 15.1867 13.1573 14.7177C12.9144 14.2486 12.7876 13.7282 12.7876 13.2C12.7876 11.8552 12.9526 9.4281 12.9881 8.9232ZM20.6251 12.9937C20.6251 11.7356 21.1249 10.529 22.0145 9.63941C22.9041 8.74979 24.1107 8.25 25.3688 8.25C25.533 8.25 25.6903 8.31519 25.8064 8.43123C25.9224 8.54727 25.9876 8.70465 25.9876 8.86875V15.8812C25.9876 16.1436 26.075 17.4446 26.1732 18.8859L26.1773 18.9544C26.2846 20.5285 26.4001 22.2403 26.4001 22.685C26.4001 23.232 26.1828 23.7566 25.796 24.1434C25.4092 24.5302 24.8846 24.7475 24.3376 24.7475C23.7906 24.7475 23.266 24.5302 22.8792 24.1434C22.4924 23.7566 22.2751 23.232 22.2751 22.685C22.2751 22.261 22.3807 20.5309 22.483 18.9445C22.5341 18.1434 22.5861 17.3671 22.6249 16.7912L22.6439 16.5H22.0688C21.8793 16.5 21.6915 16.4627 21.5163 16.3901C21.3412 16.3175 21.182 16.2112 21.048 16.0771C20.9139 15.9431 20.8076 15.7839 20.735 15.6087C20.6624 15.4336 20.6251 15.2458 20.6251 15.0562V12.9937Z" fill="white"/>
<path d="M38.5986 11.4961C41.0488 11.4961 42.585 12.2832 42.585 13.6416C42.585 14.9746 41.0488 15.749 38.5986 15.749C36.1484 15.749 34.5996 14.9746 34.5996 13.6416C34.5996 12.2832 36.1484 11.4961 38.5986 11.4961ZM38.5986 12.2959C36.7705 12.2959 35.6152 12.8037 35.6279 13.6416C35.6152 14.4668 36.7705 14.9492 38.5986 14.9619C40.4014 14.9492 41.5693 14.4668 41.5693 13.6416C41.5693 12.8037 40.4014 12.2959 38.5986 12.2959ZM42.4834 18.6689V22.376H34.7139V18.6689H42.4834ZM35.7041 19.4688V21.5635H41.5059V19.4688H35.7041ZM43.7402 16.7266V17.5518H33.457V16.7266H43.7402ZM48.6914 12.8799C48.6787 14.5303 49.8721 15.9902 51.5479 16.5742L51.04 17.3613C49.7324 16.8853 48.6978 15.9077 48.1963 14.6572C47.6948 15.9966 46.6475 17.0503 45.3271 17.5645L44.8066 16.7773C46.4951 16.1553 47.6758 14.5811 47.6758 12.8799V11.8008H48.6914V12.8799ZM54.0107 18.6055V22.5283H53.0205V19.4307H46.4189V18.6055H54.0107ZM54.0107 11.2422V18.0469H53.0205V11.2422H54.0107ZM65.2842 11.2422V17.8564H64.2812V14.9111H61.9961V14.0732H64.2812V11.2422H65.2842ZM65.2842 18.415V22.376H57.9082V18.415H65.2842ZM58.8984 19.2148V21.5635H64.3066V19.2148H58.8984ZM59.8506 13.248C59.8506 14.708 60.9805 16.1172 62.6309 16.7012L62.1104 17.4883C60.8345 17.0312 59.8506 16.0791 59.3682 14.9111C58.8794 16.2124 57.8384 17.2534 56.499 17.7422L55.9785 16.9551C57.6416 16.3584 58.8477 14.8604 58.8477 13.248V12.8037H56.2959V11.9785H62.377V12.8037H59.8506V13.248Z" fill="white"/>
</svg>
