<svg width="101" height="56" viewBox="0 0 101 56" fill="none" xmlns="http://www.w3.org/2000/svg">
<g filter="url(#filter0_d_473_7566)">
<rect x="11" y="8" width="76.9" height="33" rx="16.5" fill="#FFA275" shape-rendering="crispEdges"/>
<path d="M23.9886 16.9232C24.0039 16.737 24.0904 16.5639 24.2301 16.4399C24.3697 16.3158 24.5519 16.2504 24.7385 16.2572C24.9252 16.264 25.1021 16.3425 25.2324 16.4764C25.3627 16.6103 25.4364 16.7892 25.4381 16.976V20.6835C25.4381 20.8203 25.4924 20.9515 25.5891 21.0482C25.6858 21.1448 25.817 21.1992 25.9537 21.1992C26.0905 21.1992 26.2216 21.1448 26.3183 21.0482C26.415 20.9515 26.4693 20.8203 26.4693 20.6835V16.8687C26.4693 16.7046 26.5345 16.5473 26.6506 16.4312C26.7666 16.3152 26.924 16.25 27.0881 16.25C27.2522 16.25 27.4096 16.3152 27.5256 16.4312C27.6416 16.5473 27.7068 16.7046 27.7068 16.8687V20.6835C27.7068 20.8203 27.7612 20.9515 27.8579 21.0482C27.9546 21.1448 28.0857 21.1992 28.2225 21.1992C28.3592 21.1992 28.4904 21.1448 28.5871 21.0482C28.6838 20.9515 28.7381 20.8203 28.7381 20.6835V16.976C28.7398 16.7892 28.8135 16.6103 28.9438 16.4764C29.0741 16.3425 29.2509 16.264 29.4376 16.2572C29.6243 16.2504 29.8064 16.3158 29.9461 16.4399C30.0858 16.5639 30.1723 16.737 30.1876 16.9232C30.2231 17.4281 30.3881 19.8552 30.3881 21.2C30.3881 22.3137 29.8353 23.2988 28.9922 23.8953C28.814 24.0215 28.7711 24.1551 28.7752 24.2228C28.8767 25.7721 29.1506 30.0126 29.1506 30.685C29.1506 31.232 28.9333 31.7566 28.5465 32.1434C28.1597 32.5302 27.6351 32.7475 27.0881 32.7475C26.5411 32.7475 26.0165 32.5302 25.6297 32.1434C25.2429 31.7566 25.0256 31.232 25.0256 30.685C25.0256 30.0118 25.2995 25.7721 25.401 24.2228C25.4051 24.1551 25.3622 24.0215 25.184 23.8953C24.7526 23.5905 24.4007 23.1867 24.1578 22.7177C23.9149 22.2486 23.7881 21.7282 23.7881 21.2C23.7881 19.8552 23.9531 17.4281 23.9886 16.9232ZM31.6256 20.9937C31.6256 19.7356 32.1254 18.529 33.015 17.6394C33.9046 16.7498 35.1112 16.25 36.3693 16.25C36.5334 16.25 36.6908 16.3152 36.8069 16.4312C36.9229 16.5473 36.9881 16.7046 36.9881 16.8687V23.8812C36.9881 24.1436 37.0755 25.4446 37.1737 26.8859L37.1778 26.9544C37.2851 28.5285 37.4006 30.2403 37.4006 30.685C37.4006 31.232 37.1833 31.7566 36.7965 32.1434C36.4097 32.5302 35.8851 32.7475 35.3381 32.7475C34.7911 32.7475 34.2665 32.5302 33.8797 32.1434C33.4929 31.7566 33.2756 31.232 33.2756 30.685C33.2756 30.261 33.3812 28.5309 33.4835 26.9445C33.5346 26.1434 33.5866 25.3671 33.6254 24.7912L33.6444 24.5H33.0693C32.8797 24.5 32.692 24.4627 32.5168 24.3901C32.3417 24.3175 32.1825 24.2112 32.0485 24.0771C31.9144 23.9431 31.808 23.7839 31.7355 23.6087C31.6629 23.4336 31.6256 23.2458 31.6256 23.0562V20.9937Z" fill="white"/>
<path d="M49.5986 19.4961C52.0488 19.4961 53.585 20.2832 53.585 21.6416C53.585 22.9746 52.0488 23.749 49.5986 23.749C47.1484 23.749 45.5996 22.9746 45.5996 21.6416C45.5996 20.2832 47.1484 19.4961 49.5986 19.4961ZM49.5986 20.2959C47.7705 20.2959 46.6152 20.8037 46.6279 21.6416C46.6152 22.4668 47.7705 22.9492 49.5986 22.9619C51.4014 22.9492 52.5693 22.4668 52.5693 21.6416C52.5693 20.8037 51.4014 20.2959 49.5986 20.2959ZM53.4834 26.6689V30.376H45.7139V26.6689H53.4834ZM46.7041 27.4688V29.5635H52.5059V27.4688H46.7041ZM54.7402 24.7266V25.5518H44.457V24.7266H54.7402ZM59.6914 20.8799C59.6787 22.5303 60.8721 23.9902 62.5479 24.5742L62.04 25.3613C60.7324 24.8853 59.6978 23.9077 59.1963 22.6572C58.6948 23.9966 57.6475 25.0503 56.3271 25.5645L55.8066 24.7773C57.4951 24.1553 58.6758 22.5811 58.6758 20.8799V19.8008H59.6914V20.8799ZM65.0107 26.6055V30.5283H64.0205V27.4307H57.4189V26.6055H65.0107ZM65.0107 19.2422V26.0469H64.0205V19.2422H65.0107ZM76.2842 19.2422V25.8564H75.2812V22.9111H72.9961V22.0732H75.2812V19.2422H76.2842ZM76.2842 26.415V30.376H68.9082V26.415H76.2842ZM69.8984 27.2148V29.5635H75.3066V27.2148H69.8984ZM70.8506 21.248C70.8506 22.708 71.9805 24.1172 73.6309 24.7012L73.1104 25.4883C71.8345 25.0312 70.8506 24.0791 70.3682 22.9111C69.8794 24.2124 68.8384 25.2534 67.499 25.7422L66.9785 24.9551C68.6416 24.3584 69.8477 22.8604 69.8477 21.248V20.8037H67.2959V19.9785H73.377V20.8037H70.8506V21.248Z" fill="white"/>
</g>
<defs>
<filter id="filter0_d_473_7566" x="0.879918" y="0.128825" width="99.3895" height="55.4891" filterUnits="userSpaceOnUse" color-interpolation-filters="sRGB">
<feFlood flood-opacity="0" result="BackgroundImageFix"/>
<feColorMatrix in="SourceAlpha" type="matrix" values="0 0 0 0 0 0 0 0 0 0 0 0 0 0 0 0 0 0 127 0" result="hardAlpha"/>
<feOffset dx="1.12445" dy="3.37336"/>
<feGaussianBlur stdDeviation="5.62227"/>
<feComposite in2="hardAlpha" operator="out"/>
<feColorMatrix type="matrix" values="0 0 0 0 0.423016 0 0 0 0 0.193675 0 0 0 0 0.193675 0 0 0 0.15 0"/>
<feBlend mode="normal" in2="BackgroundImageFix" result="effect1_dropShadow_473_7566"/>
<feBlend mode="normal" in="SourceGraphic" in2="effect1_dropShadow_473_7566" result="shape"/>
</filter>
</defs>
</svg>
