<svg width="51" height="23" viewBox="0 0 51 23" fill="none" xmlns="http://www.w3.org/2000/svg">
<rect x="0.830078" y="0.775024" width="49.885" height="21.45" rx="10.725" fill="white"/>
<path d="M9.2724 6.57515C9.28235 6.45414 9.33857 6.34161 9.42937 6.26099C9.52016 6.18036 9.63854 6.13783 9.75989 6.14225C9.88123 6.14667 9.99621 6.1977 10.0809 6.28472C10.1656 6.37174 10.2135 6.48805 10.2146 6.60947V9.01938C10.2146 9.10827 10.2499 9.19352 10.3128 9.25637C10.3756 9.31923 10.4609 9.35454 10.5497 9.35454C10.6386 9.35454 10.7239 9.31923 10.7867 9.25637C10.8496 9.19352 10.8849 9.10827 10.8849 9.01938V6.53976C10.8849 6.43309 10.9273 6.3308 11.0027 6.25537C11.0781 6.17995 11.1804 6.13757 11.2871 6.13757C11.3938 6.13757 11.4961 6.17995 11.5715 6.25537C11.6469 6.3308 11.6893 6.43309 11.6893 6.53976V9.01938C11.6893 9.10827 11.7246 9.19352 11.7874 9.25637C11.8503 9.31923 11.9355 9.35454 12.0244 9.35454C12.1133 9.35454 12.1986 9.31923 12.2614 9.25637C12.3243 9.19352 12.3596 9.10827 12.3596 9.01938V6.60947C12.3607 6.48805 12.4086 6.37174 12.4933 6.28472C12.578 6.1977 12.6929 6.14667 12.8143 6.14225C12.9356 6.13783 13.054 6.18036 13.1448 6.26099C13.2356 6.34161 13.2918 6.45414 13.3018 6.57515C13.3248 6.90334 13.4321 8.48099 13.4321 9.35507C13.4321 10.079 13.0728 10.7193 12.5248 11.107C12.4089 11.189 12.381 11.2759 12.3837 11.3199C12.4497 12.327 12.6277 15.0833 12.6277 15.5203C12.6277 15.8759 12.4865 16.2169 12.2351 16.4683C11.9836 16.7197 11.6426 16.861 11.2871 16.861C10.9315 16.861 10.5905 16.7197 10.3391 16.4683C10.0877 16.2169 9.94646 15.8759 9.94646 15.5203C9.94646 15.0828 10.1245 12.327 10.1905 11.3199C10.1931 11.2759 10.1653 11.189 10.0494 11.107C9.76902 10.9089 9.54027 10.6464 9.38238 10.3415C9.22449 10.0367 9.14209 9.69839 9.14209 9.35507C9.14209 8.48099 9.24934 6.90334 9.2724 6.57515ZM14.2365 9.22101C14.2365 8.40323 14.5613 7.61895 15.1396 7.04069C15.7178 6.46243 16.5021 6.13757 17.3199 6.13757C17.4266 6.13757 17.5289 6.17995 17.6043 6.25537C17.6797 6.3308 17.7221 6.43309 17.7221 6.53976V11.0979C17.7221 11.2684 17.7789 12.1141 17.8427 13.0509L17.8454 13.0954C17.9151 14.1186 17.9902 15.2313 17.9902 15.5203C17.9902 15.8759 17.849 16.2169 17.5976 16.4683C17.3461 16.7197 17.0051 16.861 16.6496 16.861C16.294 16.861 15.953 16.7197 15.7016 16.4683C15.4502 16.2169 15.309 15.8759 15.309 15.5203C15.309 15.2447 15.3776 14.1202 15.4441 13.089C15.4773 12.5683 15.5111 12.0637 15.5363 11.6894L15.5487 11.5001H15.1749C15.0517 11.5001 14.9296 11.4758 14.8158 11.4286C14.7019 11.3815 14.5985 11.3124 14.5113 11.2252C14.4242 11.1381 14.3551 11.0346 14.3079 10.9208C14.2607 10.8069 14.2365 10.6849 14.2365 10.5616V9.22101Z" fill="#FFA275"/>
<path d="M25.9194 7.49746C27.512 7.49746 28.5105 8.00908 28.5105 8.89204C28.5105 9.7585 27.512 10.2619 25.9194 10.2619C24.3268 10.2619 23.32 9.7585 23.32 8.89204C23.32 8.00908 24.3268 7.49746 25.9194 7.49746ZM25.9194 8.01733C24.7311 8.01733 23.9802 8.34741 23.9884 8.89204C23.9802 9.42842 24.7311 9.74199 25.9194 9.75024C27.0912 9.74199 27.8503 9.42842 27.8503 8.89204C27.8503 8.34741 27.0912 8.01733 25.9194 8.01733ZM28.4445 12.1598V14.5694H23.3943V12.1598H28.4445ZM24.0379 12.6797V14.0413H27.8091V12.6797H24.0379ZM29.2614 10.8973V11.4336H22.5773V10.8973H29.2614ZM32.4797 8.39692C32.4714 9.46968 33.2471 10.4187 34.3364 10.7982L34.0063 11.3099C33.1563 11.0004 32.4838 10.365 32.1579 9.5522C31.8319 10.4228 31.1511 11.1077 30.2929 11.4419L29.9546 10.9303C31.0521 10.5259 31.8195 9.50269 31.8195 8.39692V7.69551H32.4797V8.39692ZM35.9373 12.1186V14.6684H35.2936V12.6549H31.0026V12.1186H35.9373ZM35.9373 7.33242V11.7555H35.2936V7.33242H35.9373ZM43.265 7.33242V11.6317H42.6131V9.71724H41.1277V9.17261H42.6131V7.33242H43.265ZM43.265 11.9948V14.5694H38.4706V11.9948H43.265ZM39.1143 12.5146V14.0413H42.6296V12.5146H39.1143ZM39.7332 8.63623C39.7332 9.5852 40.4676 10.5012 41.5403 10.8808L41.202 11.3924C40.3727 11.0953 39.7332 10.4764 39.4196 9.71724C39.1019 10.5631 38.4252 11.2397 37.5546 11.5574L37.2163 11.0458C38.2973 10.658 39.0813 9.68423 39.0813 8.63623V8.34741H37.4226V7.81103H41.3753V8.34741H39.7332V8.63623Z" fill="#888888"/>
</svg>
