<svg width="44" height="23" viewBox="0 0 44 23" fill="none" xmlns="http://www.w3.org/2000/svg">
<rect x="0.214844" y="0.775024" width="42.885" height="21.45" rx="10.725" fill="white"/>
<path d="M16.7307 8.49701C15.7204 7.14995 14.4356 6.40564 13.0842 6.40564C11.7329 6.40564 10.448 7.14995 9.43772 8.49701C8.67785 9.50999 7.7614 10.878 7.63485 12.3173C7.56996 13.0594 7.71368 13.8193 8.18129 14.5427C8.643 15.257 9.3975 15.8999 10.4952 16.4625C11.1703 16.8084 11.9055 16.3445 12.0015 15.6672C11.7734 15.5135 11.5642 15.3333 11.3784 15.1304C10.8352 14.5379 10.4024 13.6702 10.4024 12.5725C10.4024 10.7343 11.3516 9.49712 12.4938 9.17055C12.645 9.12765 12.8156 9.24133 12.8338 9.39791C12.9095 10.0462 13.2191 10.6447 13.7045 11.081C14.1899 11.5174 14.8178 11.7617 15.4705 11.7681C15.832 11.7714 15.7655 12.3366 15.7655 12.5725C15.7655 13.6702 15.3333 14.5379 14.7895 15.1304C14.5954 15.3428 14.3819 15.524 14.1653 15.6683C14.2511 16.3483 14.9793 16.8159 15.655 16.4893C16.816 15.9294 17.6086 15.2865 18.0885 14.5668C18.5749 13.8365 18.7122 13.0669 18.6285 12.3178C18.4676 10.8753 17.4825 9.49873 16.7307 8.49701Z" fill="#FFA275"/>
<path d="M25.7828 8.05859V12.8282H22.3912V8.05859H25.7828ZM23.0266 8.57847V12.3001H25.1474V8.57847H23.0266ZM28.0108 7.33242V14.6849H27.3589V7.33242H28.0108ZM35.9492 10.9633V11.4997H29.2651V10.9633H30.9237V9.93179C30.3378 9.70486 30.0078 9.32939 30.0078 8.83428C30.0078 7.96782 30.998 7.4727 32.6071 7.4727C34.1998 7.4727 35.1982 7.96782 35.1982 8.83428C35.1982 9.32527 34.8723 9.70073 34.2905 9.92353V10.9633H35.9492ZM32.6071 12.0608C34.1833 12.0608 35.124 12.5146 35.1322 13.3563C35.124 14.1898 34.1833 14.6519 32.6071 14.6519C31.0145 14.6519 30.0738 14.1898 30.0738 13.3563C30.0738 12.5146 31.0145 12.0608 32.6071 12.0608ZM32.6071 12.5559C31.4271 12.5642 30.7257 12.853 30.7339 13.3563C30.7257 13.8515 31.4271 14.1485 32.6071 14.1485C33.7707 14.1485 34.4803 13.8515 34.4803 13.3563C34.4803 12.853 33.7707 12.5642 32.6071 12.5559ZM32.6071 7.98433C31.4106 7.98433 30.6679 8.30615 30.6762 8.83428C30.6679 9.37065 31.4106 9.68423 32.6071 9.68423C33.7954 9.68423 34.5381 9.37065 34.5381 8.83428C34.5381 8.30615 33.7954 7.98433 32.6071 7.98433ZM31.5674 10.9633H33.6469V10.1051C33.3374 10.1587 32.9908 10.1876 32.6071 10.1876C32.2234 10.1876 31.8768 10.1587 31.5674 10.1051V10.9633Z" fill="#888888"/>
</svg>
