<svg width="67" height="33" viewBox="0 0 67 33" fill="none" xmlns="http://www.w3.org/2000/svg">
<rect x="0.899414" width="65.9" height="33" rx="16.5" fill="#FFA275"/>
<path d="M26.3103 11.8801C24.756 9.8077 22.7793 8.6626 20.7003 8.6626C18.6213 8.6626 16.6446 9.8077 15.0903 11.8801C13.9212 13.4385 12.5113 15.5431 12.3166 17.7574C12.2168 18.8992 12.4379 20.0682 13.1573 21.1811C13.8676 22.28 15.0284 23.2692 16.7172 24.1346C17.7558 24.6668 18.8869 23.9531 19.0346 22.9112C18.6836 22.6747 18.3618 22.3975 18.0759 22.0853C17.2402 21.1737 16.5744 19.8389 16.5744 18.1501C16.5744 15.322 18.0347 13.4187 19.7919 12.9163C20.0246 12.8503 20.2869 13.0252 20.315 13.2661C20.4314 14.2635 20.9077 15.1842 21.6545 15.8555C22.4013 16.5269 23.3674 16.9027 24.3715 16.9126C24.9276 16.9175 24.8253 17.7871 24.8253 18.1501C24.8253 19.8389 24.1603 21.1737 23.3238 22.0853C23.0251 22.412 22.6968 22.6909 22.3635 22.9128C22.4955 23.9589 23.6158 24.6783 24.6553 24.1759C26.4414 23.3146 27.6608 22.3254 28.3992 21.2183C29.1474 20.0946 29.3586 18.9107 29.2299 17.7582C28.9824 15.539 27.4669 13.4212 26.3103 11.8801Z" fill="white"/>
<path d="M40.2344 12.3594V19.6973H35.0166V12.3594H40.2344ZM35.9941 13.1592V18.8848H39.2568V13.1592H35.9941ZM43.6621 11.2422V22.5537H42.6592V11.2422H43.6621ZM55.875 16.8281V17.6533H45.5918V16.8281H48.1436V15.2412C47.2422 14.8921 46.7344 14.3145 46.7344 13.5527C46.7344 12.2197 48.2578 11.458 50.7334 11.458C53.1836 11.458 54.7197 12.2197 54.7197 13.5527C54.7197 14.3081 54.2183 14.8857 53.3232 15.2285V16.8281H55.875ZM50.7334 18.5166C53.1582 18.5166 54.6055 19.2148 54.6182 20.5098C54.6055 21.792 53.1582 22.5029 50.7334 22.5029C48.2832 22.5029 46.8359 21.792 46.8359 20.5098C46.8359 19.2148 48.2832 18.5166 50.7334 18.5166ZM50.7334 19.2783C48.918 19.291 47.8389 19.7354 47.8516 20.5098C47.8389 21.2715 48.918 21.7285 50.7334 21.7285C52.5234 21.7285 53.6152 21.2715 53.6152 20.5098C53.6152 19.7354 52.5234 19.291 50.7334 19.2783ZM50.7334 12.2451C48.8926 12.2451 47.75 12.7402 47.7627 13.5527C47.75 14.3779 48.8926 14.8604 50.7334 14.8604C52.5615 14.8604 53.7041 14.3779 53.7041 13.5527C53.7041 12.7402 52.5615 12.2451 50.7334 12.2451ZM49.1338 16.8281H52.333V15.5078C51.8569 15.5903 51.3237 15.6348 50.7334 15.6348C50.1431 15.6348 49.6099 15.5903 49.1338 15.5078V16.8281Z" fill="white"/>
</svg>
