<svg width="90" height="56" viewBox="0 0 90 56" fill="none" xmlns="http://www.w3.org/2000/svg">
<g filter="url(#filter0_d_1165_6965)">
<rect x="10.8994" y="8" width="65.9" height="33" rx="16.5" fill="#FFA275" shape-rendering="crispEdges"/>
<path d="M36.3103 19.8801C34.756 17.8077 32.7793 16.6626 30.7003 16.6626C28.6213 16.6626 26.6446 17.8077 25.0903 19.8801C23.9212 21.4385 22.5113 23.5431 22.3166 25.7574C22.2168 26.8992 22.4379 28.0682 23.1573 29.1811C23.8676 30.28 25.0284 31.2692 26.7172 32.1346C27.7558 32.6668 28.8869 31.9531 29.0346 30.9112C28.6836 30.6747 28.3618 30.3975 28.0759 30.0853C27.2402 29.1737 26.5744 27.8389 26.5744 26.1501C26.5744 23.322 28.0347 21.4187 29.7919 20.9163C30.0246 20.8503 30.2869 21.0252 30.315 21.2661C30.4314 22.2635 30.9077 23.1842 31.6545 23.8555C32.4013 24.5269 33.3674 24.9027 34.3715 24.9126C34.9276 24.9175 34.8253 25.7871 34.8253 26.1501C34.8253 27.8389 34.1603 29.1737 33.3238 30.0853C33.0251 30.412 32.6968 30.6909 32.3635 30.9128C32.4955 31.9589 33.6158 32.6783 34.6553 32.1759C36.4414 31.3146 37.6608 30.3254 38.3992 29.2183C39.1474 28.0946 39.3586 26.9107 39.2299 25.7582C38.9824 23.539 37.4669 21.4212 36.3103 19.8801Z" fill="white"/>
<path d="M50.2344 20.3594V27.6973H45.0166V20.3594H50.2344ZM45.9941 21.1592V26.8848H49.2568V21.1592H45.9941ZM53.6621 19.2422V30.5537H52.6592V19.2422H53.6621ZM65.875 24.8281V25.6533H55.5918V24.8281H58.1436V23.2412C57.2422 22.8921 56.7344 22.3145 56.7344 21.5527C56.7344 20.2197 58.2578 19.458 60.7334 19.458C63.1836 19.458 64.7197 20.2197 64.7197 21.5527C64.7197 22.3081 64.2183 22.8857 63.3232 23.2285V24.8281H65.875ZM60.7334 26.5166C63.1582 26.5166 64.6055 27.2148 64.6182 28.5098C64.6055 29.792 63.1582 30.5029 60.7334 30.5029C58.2832 30.5029 56.8359 29.792 56.8359 28.5098C56.8359 27.2148 58.2832 26.5166 60.7334 26.5166ZM60.7334 27.2783C58.918 27.291 57.8389 27.7354 57.8516 28.5098C57.8389 29.2715 58.918 29.7285 60.7334 29.7285C62.5234 29.7285 63.6152 29.2715 63.6152 28.5098C63.6152 27.7354 62.5234 27.291 60.7334 27.2783ZM60.7334 20.2451C58.8926 20.2451 57.75 20.7402 57.7627 21.5527C57.75 22.3779 58.8926 22.8604 60.7334 22.8604C62.5615 22.8604 63.7041 22.3779 63.7041 21.5527C63.7041 20.7402 62.5615 20.2451 60.7334 20.2451ZM59.1338 24.8281H62.333V23.5078C61.8569 23.5903 61.3237 23.6348 60.7334 23.6348C60.1431 23.6348 59.6099 23.5903 59.1338 23.5078V24.8281Z" fill="white"/>
</g>
<defs>
<filter id="filter0_d_1165_6965" x="0.779332" y="0.128825" width="88.3895" height="55.4891" filterUnits="userSpaceOnUse" color-interpolation-filters="sRGB">
<feFlood flood-opacity="0" result="BackgroundImageFix"/>
<feColorMatrix in="SourceAlpha" type="matrix" values="0 0 0 0 0 0 0 0 0 0 0 0 0 0 0 0 0 0 127 0" result="hardAlpha"/>
<feOffset dx="1.12445" dy="3.37336"/>
<feGaussianBlur stdDeviation="5.62227"/>
<feComposite in2="hardAlpha" operator="out"/>
<feColorMatrix type="matrix" values="0 0 0 0 0.423016 0 0 0 0 0.193675 0 0 0 0 0.193675 0 0 0 0.15 0"/>
<feBlend mode="normal" in2="BackgroundImageFix" result="effect1_dropShadow_1165_6965"/>
<feBlend mode="normal" in="SourceGraphic" in2="effect1_dropShadow_1165_6965" result="shape"/>
</filter>
</defs>
</svg>
