<svg width="90" height="56" viewBox="0 0 90 56" fill="none" xmlns="http://www.w3.org/2000/svg">
<g filter="url(#filter0_d_473_7568)">
<rect x="10.7998" y="8" width="65.9" height="33" rx="16.5" fill="white" shape-rendering="crispEdges"/>
<path d="M36.2106 19.88C34.6563 17.8076 32.6796 16.6625 30.6006 16.6625C28.5216 16.6625 26.5449 17.8076 24.9906 19.88C23.8216 21.4384 22.4117 23.543 22.217 25.7573C22.1172 26.8991 22.3383 28.0681 23.0577 29.181C23.768 30.2799 24.9288 31.2691 26.6175 32.1345C27.6562 32.6667 28.7873 31.953 28.935 30.911C28.584 30.6746 28.2622 30.3974 27.9763 30.0852C27.1406 29.1736 26.4748 27.8388 26.4748 26.15C26.4748 23.3219 27.9351 21.4186 29.6923 20.9162C29.925 20.8502 30.1873 21.0251 30.2154 21.266C30.3318 22.2634 30.8081 23.1841 31.5549 23.8554C32.3017 24.5267 33.2678 24.9026 34.2719 24.9125C34.8279 24.9174 34.7256 25.787 34.7256 26.15C34.7256 27.8388 34.0607 29.1736 33.2241 30.0852C32.9255 30.4119 32.5971 30.6908 32.2638 30.9127C32.3958 31.9588 33.5162 32.6782 34.5557 32.1758C36.3418 31.3145 37.5612 30.3253 38.2995 29.2182C39.0478 28.0945 39.259 26.9106 39.1303 25.7581C38.8828 23.5389 37.3673 21.4211 36.2106 19.88Z" fill="#FFA275"/>
<path d="M50.1348 20.3594V27.6973H44.917V20.3594H50.1348ZM45.8945 21.1592V26.8848H49.1572V21.1592H45.8945ZM53.5625 19.2422V30.5537H52.5596V19.2422H53.5625ZM65.7754 24.8281V25.6533H55.4922V24.8281H58.0439V23.2412C57.1426 22.8921 56.6348 22.3145 56.6348 21.5527C56.6348 20.2197 58.1582 19.458 60.6338 19.458C63.084 19.458 64.6201 20.2197 64.6201 21.5527C64.6201 22.3081 64.1187 22.8857 63.2236 23.2285V24.8281H65.7754ZM60.6338 26.5166C63.0586 26.5166 64.5059 27.2148 64.5186 28.5098C64.5059 29.792 63.0586 30.5029 60.6338 30.5029C58.1836 30.5029 56.7363 29.792 56.7363 28.5098C56.7363 27.2148 58.1836 26.5166 60.6338 26.5166ZM60.6338 27.2783C58.8184 27.291 57.7393 27.7354 57.752 28.5098C57.7393 29.2715 58.8184 29.7285 60.6338 29.7285C62.4238 29.7285 63.5156 29.2715 63.5156 28.5098C63.5156 27.7354 62.4238 27.291 60.6338 27.2783ZM60.6338 20.2451C58.793 20.2451 57.6504 20.7402 57.6631 21.5527C57.6504 22.3779 58.793 22.8604 60.6338 22.8604C62.4619 22.8604 63.6045 22.3779 63.6045 21.5527C63.6045 20.7402 62.4619 20.2451 60.6338 20.2451ZM59.0342 24.8281H62.2334V23.5078C61.7573 23.5903 61.2241 23.6348 60.6338 23.6348C60.0435 23.6348 59.5103 23.5903 59.0342 23.5078V24.8281Z" fill="#888888"/>
</g>
<defs>
<filter id="filter0_d_473_7568" x="0.679723" y="0.128825" width="88.3895" height="55.4891" filterUnits="userSpaceOnUse" color-interpolation-filters="sRGB">
<feFlood flood-opacity="0" result="BackgroundImageFix"/>
<feColorMatrix in="SourceAlpha" type="matrix" values="0 0 0 0 0 0 0 0 0 0 0 0 0 0 0 0 0 0 127 0" result="hardAlpha"/>
<feOffset dx="1.12445" dy="3.37336"/>
<feGaussianBlur stdDeviation="5.62227"/>
<feComposite in2="hardAlpha" operator="out"/>
<feColorMatrix type="matrix" values="0 0 0 0 0.423016 0 0 0 0 0.193675 0 0 0 0 0.193675 0 0 0 0.15 0"/>
<feBlend mode="normal" in2="BackgroundImageFix" result="effect1_dropShadow_473_7568"/>
<feBlend mode="normal" in="SourceGraphic" in2="effect1_dropShadow_473_7568" result="shape"/>
</filter>
</defs>
</svg>
