<svg width="25" height="24" viewBox="0 0 25 24" fill="none" xmlns="http://www.w3.org/2000/svg">
<path d="M21.2998 10C21.2998 17 12.2998 23 12.2998 23C12.2998 23 3.2998 17 3.2998 10C3.2998 7.61305 4.24802 5.32387 5.93584 3.63604C7.62367 1.94821 9.91286 1 12.2998 1C14.6868 1 16.9759 1.94821 18.6638 3.63604C20.3516 5.32387 21.2998 7.61305 21.2998 10Z" stroke="currentColor" stroke-width="2" stroke-linecap="round" stroke-linejoin="round"/>
<path d="M12.2998 13C13.9567 13 15.2998 11.6569 15.2998 10C15.2998 8.34315 13.9567 7 12.2998 7C10.643 7 9.2998 8.34315 9.2998 10C9.2998 11.6569 10.643 13 12.2998 13Z" stroke="currentColor" stroke-width="2" stroke-linecap="round" stroke-linejoin="round"/>
</svg>
